<?xml version="1.0" standalone="no"?>
<!DOCTYPE svg PUBLIC "-//W3C//DTD SVG 20010904//EN"
 "http://www.w3.org/TR/2001/REC-SVG-20010904/DTD/svg10.dtd">
<svg version="1.0" xmlns="http://www.w3.org/2000/svg"
 width="1024.000000pt" height="1024.000000pt" viewBox="0 0 1024.000000 1024.000000"
 preserveAspectRatio="xMidYMid meet">

<g transform="translate(0.000000,1024.000000) scale(0.100000,-0.100000)"
fill="#000000" stroke="none">
<path d="M4510 8529 c-158 -10 -322 -45 -515 -111 -145 -50 -373 -184 -507
-299 -89 -76 -239 -240 -306 -334 -116 -163 -229 -407 -268 -575 -38 -168 -54
-427 -35 -595 l8 -70 -76 -90 c-105 -124 -391 -514 -575 -783 -87 -128 -313
-502 -403 -667 -75 -138 -181 -357 -234 -483 -22 -53 -46 -110 -54 -127 -34
-76 -140 -413 -169 -540 -49 -216 -58 -282 -63 -490 -6 -232 3 -329 42 -465
76 -258 179 -401 401 -552 169 -116 471 -238 720 -292 65 -15 156 -36 202 -47
89 -22 98 -24 332 -62 148 -25 258 -37 510 -57 592 -46 1186 -1 1795 135 110
25 206 45 213 45 6 0 12 -8 12 -18 0 -32 137 -435 203 -597 61 -151 183 -413
280 -605 38 -76 45 -85 67 -81 14 2 183 5 375 6 193 0 371 2 396 3 l47 2 11
47 c10 37 9 48 -1 54 -10 7 -10 9 2 9 9 0 35 20 59 44 55 56 122 85 205 91 35
2 80 10 100 19 42 17 48 13 9 -7 l-27 -14 38 -18 c44 -21 126 -102 120 -119
-2 -6 2 -29 10 -51 14 -39 16 -40 64 -43 49 -3 51 -2 54 25 3 27 6 28 60 31
55 3 57 2 60 -25 3 -28 3 -28 86 -31 69 -2 87 0 110 16 77 55 239 54 301 -2
28 -25 101 -20 155 10 88 49 253 43 319 -12 28 -24 32 -24 216 -24 l187 0 2
1635 c1 975 6 1652 11 1677 6 23 8 45 6 48 -2 4 -134 8 -292 9 l-288 2 -115
59 c-145 74 -285 129 -425 169 -60 17 -132 38 -160 46 -186 55 -530 67 -750
27 -428 -77 -751 -216 -1080 -462 -49 -38 -119 -97 -155 -133 l-64 -65 -36 37
c-20 20 -62 54 -95 75 -33 22 -72 48 -87 58 -84 56 -346 173 -457 203 -31 9
-87 25 -126 36 -214 60 -539 80 -765 45 -422 -64 -750 -200 -1047 -434 -45
-35 -94 -82 -108 -104 -15 -22 -29 -37 -32 -35 -3 3 9 61 26 129 17 68 42 179
56 248 61 295 219 859 325 1165 17 50 45 131 62 181 l31 91 78 -62 c68 -56
146 -106 242 -157 59 -31 251 -106 312 -122 289 -76 312 -79 490 -80 148 0
186 4 300 28 248 53 403 109 583 210 206 115 403 302 565 536 89 129 192 362
241 545 47 175 60 479 31 698 -23 177 -99 395 -192 557 -146 253 -360 470
-630 641 -200 127 -504 229 -728 244 -49 3 -103 7 -120 9 -16 1 -82 -1 -145
-5z m460 -134 c403 -102 680 -286 952 -630 52 -67 138 -196 138 -208 0 -3 17
-43 38 -89 250 -538 180 -1165 -184 -1648 -83 -110 -275 -300 -367 -362 -222
-151 -470 -241 -781 -283 -138 -19 -249 -11 -466 31 -148 29 -186 40 -305 89
-253 105 -445 243 -631 456 -69 79 -143 201 -228 374 -88 179 -124 301 -159
530 -19 127 -20 150 -8 275 15 177 42 286 108 448 83 204 129 283 260 447 126
158 238 258 394 352 74 45 165 96 203 112 105 47 344 119 486 145 14 3 111 3
215 1 180 -3 198 -5 335 -40z m-2013 -2105 c37 -111 143 -342 196 -425 64
-100 120 -171 187 -237 l70 -67 -26 -50 c-14 -28 -45 -117 -70 -198 -24 -82
-57 -186 -74 -233 -16 -47 -41 -132 -55 -188 -15 -57 -34 -120 -42 -140 -19
-46 -120 -436 -202 -777 -33 -141 -54 -255 -95 -512 -4 -30 17 -58 37 -50 9 3
37 38 63 77 50 76 201 216 348 325 198 144 498 267 803 327 144 28 461 30 631
4 221 -33 401 -90 595 -188 88 -44 357 -223 357 -238 0 -5 -4 -11 -9 -14 -13
-9 -145 -196 -166 -235 -38 -74 -55 -140 -43 -166 21 -46 41 -29 116 98 80
135 254 344 382 459 78 70 246 185 365 251 173 95 433 188 655 233 169 35 431
43 606 20 258 -34 534 -126 746 -248 l86 -49 7 -116 c4 -63 5 -267 2 -452 -6
-354 -14 -440 -62 -656 -14 -66 -33 -156 -41 -200 -9 -44 -35 -134 -59 -200
-24 -66 -46 -130 -50 -142 -14 -51 -119 -274 -177 -377 -148 -263 -393 -536
-611 -680 -229 -151 -625 -312 -848 -345 -84 -12 -426 -32 -443 -25 -6 2 -26
32 -45 65 -53 98 -241 498 -266 569 -13 36 -39 104 -59 153 -19 48 -43 118
-52 155 -9 37 -29 110 -44 162 -16 52 -34 117 -41 143 -16 64 -32 79 -67 66
-62 -25 -436 -112 -557 -130 -456 -68 -561 -79 -825 -87 -363 -12 -671 4
-1056 53 -235 31 -322 46 -489 90 -71 18 -157 39 -190 45 -103 20 -327 101
-452 164 -250 125 -392 256 -491 452 -61 120 -95 316 -95 549 0 403 99 778
351 1320 179 384 508 923 807 1321 61 80 164 219 230 308 88 118 121 155 123
141 2 -11 20 -67 39 -125z m5981 -2256 c4 -5 5 -94 2 -199 -4 -104 -7 -158 -8
-119 -3 116 -12 162 -33 167 -22 6 -80 -5 -80 -16 1 -4 1 -11 1 -17 0 -5 -19
-15 -42 -21 -24 -7 -47 -16 -52 -21 -6 -4 -18 -8 -28 -8 -10 0 -27 -6 -38 -12
-16 -10 -22 -10 -32 4 -7 8 -27 18 -44 21 l-31 6 -7 -61 c-3 -34 -7 -84 -8
-112 -2 -65 -15 177 -17 308 l-1 99 206 -5 c113 -3 208 -9 212 -14z m-401
-581 c-2 -27 -3 -5 -3 47 0 52 1 74 3 48 2 -27 2 -69 0 -95z m-10 -255 c-2
-13 -4 -3 -4 22 0 25 2 35 4 23 2 -13 2 -33 0 -45z m-10 -100 c-3 -8 -6 -5 -6
6 -1 11 2 17 5 13 3 -3 4 -12 1 -19z m3 -45 c-1 -46 -45 -305 -61 -363 -12
-41 -23 -84 -24 -95 -1 -11 -4 -27 -8 -35 -3 -8 -13 -44 -22 -80 -9 -36 -27
-89 -40 -119 -14 -29 -25 -59 -25 -66 0 -6 -7 -26 -15 -43 -9 -17 -18 -40 -20
-50 -2 -11 -15 -44 -29 -73 -13 -30 -30 -67 -35 -82 -6 -15 -36 -71 -67 -125
-31 -53 -57 -104 -59 -111 -1 -8 -7 -17 -13 -19 -7 -2 -12 -9 -12 -16 0 -7
-11 -25 -24 -41 -15 -17 -22 -35 -19 -49 4 -16 2 -18 -5 -7 -8 11 -14 8 -28
-15 -11 -15 -28 -37 -39 -49 -11 -11 -38 -42 -60 -70 -78 -98 -248 -285 -260
-285 -4 0 -13 -6 -21 -14 -11 -11 -12 -21 -3 -43 13 -36 64 -88 100 -103 39
-16 43 -37 11 -48 -40 -14 -87 -57 -106 -97 -22 -46 -38 -44 -60 6 -13 29 -34
51 -73 76 -44 28 -52 37 -42 49 6 8 17 14 24 14 29 0 106 82 91 97 -3 3 -31
-14 -63 -38 -63 -48 -113 -74 -113 -59 0 6 5 10 10 10 14 0 99 60 190 134 133
109 311 310 444 501 76 108 220 404 275 563 28 78 53 147 56 152 15 25 113
458 122 540 3 33 10 60 14 60 5 0 9 -3 9 -7z m417 -135 c-3 -7 -5 -2 -5 12 0
14 2 19 5 13 2 -7 2 -19 0 -25z m0 -300 c-1 -46 -3 -11 -3 77 0 88 2 125 3 83
2 -42 2 -114 0 -160z m0 -1110 c-1 -95 -3 -18 -3 172 0 190 2 267 3 173 2 -95
2 -251 0 -345z m0 -350 c-2 -18 -4 -6 -4 27 0 33 2 48 4 33 2 -15 2 -42 0 -60z
m-1577 -88 c-8 -5 -19 -10 -25 -10 -5 0 -3 5 5 10 8 5 20 10 25 10 6 0 3 -5
-5 -10z m1580 -95 c0 -91 -1 -95 -22 -95 -20 0 -20 1 -5 18 13 14 17 38 17 95
0 42 2 77 5 77 3 0 5 -43 5 -95z"/>
<path d="M3705 8030 c3 -5 10 -10 16 -10 5 0 9 5 9 10 0 6 -7 10 -16 10 -8 0
-12 -4 -9 -10z"/>
<path d="M4471 8004 c-200 -28 -427 -120 -579 -237 -147 -112 -297 -294 -369
-447 -45 -95 -89 -217 -102 -281 -33 -158 -30 -404 6 -533 37 -137 124 -326
201 -438 64 -94 204 -225 322 -302 232 -152 562 -227 820 -185 183 29 411 123
565 234 76 54 209 192 262 270 138 206 223 475 223 708 0 131 -27 303 -61 382
-4 11 -17 45 -29 75 -12 30 -28 68 -36 83 -8 16 -14 33 -14 38 0 12 -64 110
-117 180 -76 100 -267 256 -389 318 -131 66 -280 114 -421 136 -120 18 -143
17 -282 -1z m286 -105 c354 -49 702 -303 844 -615 17 -38 40 -89 51 -113 29
-65 57 -183 70 -298 16 -137 1 -252 -53 -415 -125 -379 -359 -616 -729 -737
-141 -46 -203 -54 -379 -48 -136 4 -168 9 -251 34 -228 71 -425 205 -569 388
-168 211 -265 523 -240 765 5 52 13 120 18 152 31 190 166 435 319 579 258
243 590 354 919 308z"/>
<path d="M4310 7810 c0 -5 5 -10 11 -10 5 0 7 5 4 10 -3 6 -8 10 -11 10 -2 0
-4 -4 -4 -10z"/>
<path d="M4368 7813 c6 -2 18 -2 25 0 6 3 1 5 -13 5 -14 0 -19 -2 -12 -5z"/>
<path d="M4270 7800 c0 -5 5 -10 11 -10 5 0 7 5 4 10 -3 6 -8 10 -11 10 -2 0
-4 -4 -4 -10z"/>
<path d="M4855 7790 c3 -5 8 -10 11 -10 2 0 4 5 4 10 0 6 -5 10 -11 10 -5 0
-7 -4 -4 -10z"/>
<path d="M4981 7744 c0 -11 3 -14 6 -6 3 7 2 16 -1 19 -3 4 -6 -2 -5 -13z"/>
<path d="M4295 7740 c3 -5 13 -10 21 -10 8 0 12 5 9 10 -3 6 -13 10 -21 10 -8
0 -12 -4 -9 -10z"/>
<path d="M4245 7720 c-3 -5 1 -10 10 -10 9 0 13 5 10 10 -3 6 -8 10 -10 10 -2
0 -7 -4 -10 -10z"/>
<path d="M5052 7691 c13 -22 28 -28 28 -11 0 5 -9 14 -20 20 -19 10 -20 10 -8
-9z"/>
<path d="M4135 7670 c3 -5 8 -10 11 -10 2 0 4 5 4 10 0 6 -5 10 -11 10 -5 0
-7 -4 -4 -10z"/>
<path d="M4975 7670 c3 -5 11 -10 16 -10 6 0 7 5 4 10 -3 6 -11 10 -16 10 -6
0 -7 -4 -4 -10z"/>
<path d="M4272 7659 c2 -7 10 -15 17 -17 8 -3 12 1 9 9 -2 7 -10 15 -17 17 -8
3 -12 -1 -9 -9z"/>
<path d="M5116 7646 c6 -16 54 -40 54 -27 0 8 -44 41 -54 41 -3 0 -3 -6 0 -14z"/>
<path d="M4015 7629 c-10 -15 3 -25 16 -12 7 7 7 13 1 17 -6 3 -14 1 -17 -5z"/>
<path d="M5045 7630 c3 -5 8 -10 11 -10 2 0 4 5 4 10 0 6 -5 10 -11 10 -5 0
-7 -4 -4 -10z"/>
<path d="M5214 7599 c-8 -14 11 -33 25 -25 6 4 11 11 11 16 0 13 -29 20 -36 9z"/>
<path d="M5102 7579 c2 -7 10 -15 17 -17 8 -3 12 1 9 9 -2 7 -10 15 -17 17 -8
3 -12 -1 -9 -9z"/>
<path d="M5283 7579 c-25 -9 -30 -19 -10 -19 15 0 43 17 37 23 -3 3 -15 1 -27
-4z"/>
<path d="M3890 7560 c0 -5 5 -10 11 -10 5 0 7 5 4 10 -3 6 -8 10 -11 10 -2 0
-4 -4 -4 -10z"/>
<path d="M5160 7546 c0 -2 7 -7 16 -10 8 -3 12 -2 9 4 -6 10 -25 14 -25 6z"/>
<path d="M5040 7530 c0 -5 5 -10 10 -10 6 0 10 5 10 10 0 6 -4 10 -10 10 -5 0
-10 -4 -10 -10z"/>
<path d="M5327 7529 c8 -8 16 -8 30 0 16 9 14 10 -11 11 -22 0 -27 -3 -19 -11z"/>
<path d="M4075 7520 c3 -5 8 -10 11 -10 2 0 4 5 4 10 0 6 -5 10 -11 10 -5 0
-7 -4 -4 -10z"/>
<path d="M5110 7500 c0 -9 32 -30 46 -30 4 0 -1 9 -11 20 -19 21 -35 26 -35
10z"/>
<path d="M5380 7500 c0 -5 5 -10 11 -10 5 0 7 5 4 10 -3 6 -8 10 -11 10 -2 0
-4 -4 -4 -10z"/>
<path d="M5215 7464 c-27 -20 -102 -86 -165 -148 -63 -61 -136 -130 -161 -154
l-45 -43 -45 25 c-53 28 -100 44 -154 50 -43 5 -184 -20 -200 -35 -5 -5 -17
-9 -26 -9 -10 0 -30 -11 -46 -24 l-29 -24 -22 41 c-19 36 -277 295 -334 336
-17 12 -23 10 -49 -15 -16 -15 -29 -33 -29 -39 0 -7 86 -94 190 -194 105 -101
190 -187 190 -192 0 -5 -10 -26 -23 -47 -38 -62 -51 -113 -50 -192 2 -85 32
-194 63 -227 l20 -22 -148 -140 c-81 -77 -171 -159 -200 -182 l-54 -42 35 -35
35 -35 29 22 c15 13 102 93 192 179 90 86 169 156 175 155 6 -1 45 -14 86 -29
107 -39 222 -39 300 1 30 15 62 34 71 42 15 13 36 -5 207 -176 112 -112 198
-191 209 -190 10 0 29 14 42 30 l24 30 -177 177 c-98 98 -182 185 -187 194 -6
12 -3 26 11 50 32 55 53 155 47 228 -7 84 -31 160 -61 193 l-24 26 220 212
219 211 -27 14 c-39 20 -54 17 -109 -22z m-509 -385 c145 -54 227 -225 179
-370 -35 -105 -157 -192 -267 -191 -60 1 -167 42 -203 78 -62 63 -87 110 -92
176 -9 103 32 198 111 263 82 67 172 81 272 44z"/>
<path d="M4594 6873 c-36 -5 -70 -36 -79 -74 -5 -21 1 -32 35 -63 34 -31 47
-36 68 -31 40 10 71 32 92 67 l19 32 -27 17 c-15 9 -35 26 -44 38 -10 11 -21
20 -25 19 -5 0 -22 -3 -39 -5z"/>
<path d="M5030 7470 c0 -5 5 -10 11 -10 5 0 7 5 4 10 -3 6 -8 10 -11 10 -2 0
-4 -4 -4 -10z"/>
<path d="M5385 7459 c-4 -6 -5 -12 -2 -15 7 -7 37 7 37 17 0 13 -27 11 -35 -2z"/>
<path d="M5085 7440 c3 -5 8 -10 11 -10 2 0 4 5 4 10 0 6 -5 10 -11 10 -5 0
-7 -4 -4 -10z"/>
<path d="M5395 7400 c-8 -13 4 -32 16 -25 12 8 12 35 0 35 -6 0 -13 -4 -16
-10z"/>
<path d="M5452 7399 c2 -6 8 -10 13 -10 5 0 11 4 13 10 2 6 -4 11 -13 11 -9 0
-15 -5 -13 -11z"/>
<path d="M3750 7346 c0 -9 5 -16 10 -16 6 0 10 4 10 9 0 6 -4 13 -10 16 -5 3
-10 -1 -10 -9z"/>
<path d="M5408 7333 c7 -3 16 -2 19 1 4 3 -2 6 -13 5 -11 0 -14 -3 -6 -6z"/>
<path d="M3840 7310 c0 -5 7 -10 15 -10 8 0 15 5 15 10 0 6 -7 10 -15 10 -8 0
-15 -4 -15 -10z"/>
<path d="M5497 7313 c-12 -12 -7 -22 8 -17 8 4 15 10 15 15 0 11 -14 12 -23 2z"/>
<path d="M5420 7290 c0 -5 7 -10 15 -10 8 0 15 5 15 10 0 6 -7 10 -15 10 -8 0
-15 -4 -15 -10z"/>
<path d="M5340 7280 c0 -5 5 -10 11 -10 5 0 7 5 4 10 -3 6 -8 10 -11 10 -2 0
-4 -4 -4 -10z"/>
<path d="M5285 7250 c3 -5 8 -10 11 -10 2 0 4 5 4 10 0 6 -5 10 -11 10 -5 0
-7 -4 -4 -10z"/>
<path d="M5457 7233 c-13 -12 -7 -23 13 -23 11 0 20 7 20 15 0 15 -21 21 -33
8z"/>
<path d="M3955 7209 c-11 -17 1 -21 15 -4 8 9 8 15 2 15 -6 0 -14 -5 -17 -11z"/>
<path d="M5296 7213 c-3 -3 -3 -10 0 -14 7 -12 34 -11 34 0 0 11 -26 22 -34
14z"/>
<path d="M5360 7210 c0 -5 11 -10 25 -10 14 0 25 5 25 10 0 6 -11 10 -25 10
-14 0 -25 -4 -25 -10z"/>
<path d="M5218 7202 c-10 -2 -18 -8 -18 -13 0 -15 27 -22 45 -12 13 8 14 11 3
19 -7 6 -21 9 -30 6z"/>
<path d="M5420 7140 c6 -11 15 -20 20 -20 14 0 12 9 -4 26 -21 20 -28 17 -16
-6z"/>
<path d="M5493 7143 c9 -9 19 -14 23 -11 10 10 -6 28 -24 28 -15 0 -15 -1 1
-17z"/>
<path d="M5560 7156 c0 -2 7 -7 16 -10 8 -3 12 -2 9 4 -6 10 -25 14 -25 6z"/>
<path d="M5140 7135 c0 -8 7 -15 15 -15 8 0 15 7 15 15 0 8 -7 15 -15 15 -8 0
-15 -7 -15 -15z"/>
<path d="M5353 7137 c4 -10 7 -23 7 -28 0 -5 5 -9 10 -9 16 0 12 26 -7 41 -15
12 -16 12 -10 -4z"/>
<path d="M5280 7110 c0 -9 31 -30 44 -30 4 0 1 9 -6 20 -13 21 -38 27 -38 10z"/>
<path d="M5230 7096 c0 -2 7 -7 16 -10 8 -3 12 -2 9 4 -6 10 -25 14 -25 6z"/>
<path d="M5090 7080 c0 -5 5 -10 10 -10 6 0 10 5 10 10 0 6 -4 10 -10 10 -5 0
-10 -4 -10 -10z"/>
<path d="M5150 7080 c0 -5 9 -10 21 -10 11 0 17 5 14 10 -3 6 -13 10 -21 10
-8 0 -14 -4 -14 -10z"/>
<path d="M4205 7010 c3 -5 11 -10 16 -10 6 0 7 5 4 10 -3 6 -11 10 -16 10 -6
0 -7 -4 -4 -10z"/>
<path d="M5045 7010 c3 -5 11 -10 16 -10 6 0 7 5 4 10 -3 6 -11 10 -16 10 -6
0 -7 -4 -4 -10z"/>
<path d="M5350 7010 c0 -5 5 -10 10 -10 6 0 10 5 10 10 0 6 -4 10 -10 10 -5 0
-10 -4 -10 -10z"/>
<path d="M5215 7000 c3 -5 8 -10 11 -10 2 0 4 5 4 10 0 6 -5 10 -11 10 -5 0
-7 -4 -4 -10z"/>
<path d="M5050 6934 c0 -8 5 -12 10 -9 6 3 10 10 10 16 0 5 -4 9 -10 9 -5 0
-10 -7 -10 -16z"/>
<path d="M5551 6894 c0 -11 3 -14 6 -6 3 7 2 16 -1 19 -3 4 -6 -2 -5 -13z"/>
<path d="M5611 6884 c0 -11 3 -14 6 -6 3 7 2 16 -1 19 -3 4 -6 -2 -5 -13z"/>
<path d="M4115 6800 c-3 -5 -2 -10 4 -10 5 0 13 5 16 10 3 6 2 10 -4 10 -5 0
-13 -4 -16 -10z"/>
<path d="M3945 6700 c-3 -5 -1 -10 4 -10 6 0 11 5 11 10 0 6 -2 10 -4 10 -3 0
-8 -4 -11 -10z"/>
<path d="M4035 6700 c3 -5 10 -10 16 -10 5 0 9 5 9 10 0 6 -7 10 -16 10 -8 0
-12 -4 -9 -10z"/>
<path d="M4110 6700 c0 -5 5 -10 10 -10 6 0 10 5 10 10 0 6 -4 10 -10 10 -5 0
-10 -4 -10 -10z"/>
<path d="M4134 6634 c3 -9 6 -18 6 -20 0 -2 5 -4 10 -4 6 0 10 9 10 20 0 12
-7 20 -16 20 -11 0 -14 -5 -10 -16z"/>
<path d="M4050 6630 c0 -5 5 -10 10 -10 6 0 10 5 10 10 0 6 -4 10 -10 10 -5 0
-10 -4 -10 -10z"/>
<path d="M5641 6584 c0 -11 3 -14 6 -6 3 7 2 16 -1 19 -3 4 -6 -2 -5 -13z"/>
<path d="M4098 6563 c7 -3 16 -2 19 1 4 3 -2 6 -13 5 -11 0 -14 -3 -6 -6z"/>
<path d="M5055 6530 c3 -5 8 -10 11 -10 2 0 4 5 4 10 0 6 -5 10 -11 10 -5 0
-7 -4 -4 -10z"/>
<path d="M5535 6520 c-3 -5 -1 -10 4 -10 6 0 11 5 11 10 0 6 -2 10 -4 10 -3 0
-8 -4 -11 -10z"/>
<path d="M3955 6510 c-3 -5 -1 -10 4 -10 6 0 11 5 11 10 0 6 -2 10 -4 10 -3 0
-8 -4 -11 -10z"/>
<path d="M4035 6510 c-3 -5 1 -10 10 -10 9 0 13 5 10 10 -3 6 -8 10 -10 10 -2
0 -7 -4 -10 -10z"/>
<path d="M3630 6479 c0 -5 5 -7 10 -4 6 3 10 8 10 11 0 2 -4 4 -10 4 -5 0 -10
-5 -10 -11z"/>
<path d="M4861 6421 c-10 -17 -9 -21 3 -21 20 0 31 19 18 32 -7 7 -14 3 -21
-11z"/>
<path d="M4400 6395 c7 -8 16 -12 21 -9 13 8 1 24 -18 24 -13 0 -13 -3 -3 -15z"/>
<path d="M4307 6384 c-9 -10 2 -24 19 -24 8 0 14 7 14 15 0 15 -21 21 -33 9z"/>
<path d="M4467 6384 c-4 -4 -7 -17 -7 -28 0 -18 6 -22 40 -22 28 -1 40 3 40
12 0 8 -10 14 -21 14 -12 0 -27 7 -33 16 -6 8 -15 12 -19 8z"/>
<path d="M5475 6371 c-6 -11 9 -23 19 -14 9 9 7 23 -3 23 -6 0 -12 -4 -16 -9z"/>
<path d="M4383 6363 c-7 -3 -13 -8 -13 -13 0 -12 25 -19 39 -11 15 10 -8 31
-26 24z"/>
<path d="M4907 6364 c-4 -4 -4 -11 -1 -15 8 -14 31 -10 38 6 5 15 -24 22 -37
9z"/>
<path d="M4810 6346 c0 -8 4 -17 9 -20 10 -7 23 19 14 28 -11 11 -23 6 -23 -8z"/>
<path d="M4860 6349 c0 -5 5 -7 10 -4 6 3 10 8 10 11 0 2 -4 4 -10 4 -5 0 -10
-5 -10 -11z"/>
<path d="M4574 6339 c-9 -16 12 -33 31 -25 14 5 15 9 5 21 -15 18 -26 19 -36
4z"/>
<path d="M4755 6341 c-7 -12 12 -24 25 -16 11 7 4 25 -10 25 -5 0 -11 -4 -15
-9z"/>
<path d="M4639 6329 c-6 -3 -4 -11 5 -18 10 -9 16 -9 21 -1 4 7 19 9 36 5 22
-5 29 -3 29 8 0 10 -11 14 -41 13 -22 0 -45 -3 -50 -7z"/>
<path d="M4260 6300 c0 -5 7 -10 16 -10 8 0 12 5 9 10 -3 6 -10 10 -16 10 -5
0 -9 -4 -9 -10z"/>
<path d="M4342 6298 c3 -7 13 -15 22 -16 12 -3 17 1 14 10 -3 7 -13 15 -22 16
-12 3 -17 -1 -14 -10z"/>
<path d="M3820 6283 c0 -13 5 -23 10 -23 13 0 13 11 0 30 -8 12 -10 11 -10 -7z"/>
<path d="M4760 6280 c0 -5 5 -10 10 -10 6 0 10 5 10 10 0 6 -4 10 -10 10 -5 0
-10 -4 -10 -10z"/>
<path d="M4950 6281 c0 -19 22 -23 38 -7 15 15 14 16 -11 16 -15 0 -27 -4 -27
-9z"/>
<path d="M4430 6270 c-12 -8 -10 -10 8 -10 13 0 20 4 17 10 -7 12 -6 12 -25 0z"/>
<path d="M4232 6248 c3 -7 12 -14 21 -16 12 -2 15 1 11 12 -7 19 -38 22 -32 4z"/>
<path d="M4506 6251 c-4 -5 -2 -12 3 -15 5 -4 12 -2 15 3 4 5 2 12 -3 15 -5 4
-12 2 -15 -3z"/>
<path d="M4870 6250 c0 -19 29 -22 45 -6 15 15 14 16 -14 16 -17 0 -31 -5 -31
-10z"/>
<path d="M4827 6243 c-12 -11 -8 -23 8 -23 8 0 15 7 15 15 0 16 -12 20 -23 8z"/>
<path d="M4578 6228 c9 -9 15 -9 24 0 9 9 7 12 -12 12 -19 0 -21 -3 -12 -12z"/>
<path d="M5025 6230 c-3 -5 -1 -10 4 -10 6 0 11 5 11 10 0 6 -2 10 -4 10 -3 0
-8 -4 -11 -10z"/>
<path d="M4700 6220 c0 -5 7 -10 15 -10 8 0 15 5 15 10 0 6 -7 10 -15 10 -8 0
-15 -4 -15 -10z"/>
<path d="M4970 6200 c0 -5 5 -10 11 -10 5 0 7 5 4 10 -3 6 -8 10 -11 10 -2 0
-4 -4 -4 -10z"/>
<path d="M4183 6185 c11 -7 25 -11 33 -8 22 8 6 23 -24 23 -25 -1 -26 -2 -9
-15z"/>
<path d="M4910 6170 c0 -13 5 -20 13 -17 6 2 12 10 12 17 0 7 -6 15 -12 18 -8
2 -13 -5 -13 -18z"/>
<path d="M3880 6150 c0 -5 7 -10 16 -10 8 0 12 5 9 10 -3 6 -10 10 -16 10 -5
0 -9 -4 -9 -10z"/>
<path d="M4120 6142 c0 -5 12 -14 26 -21 32 -14 54 -3 29 16 -21 14 -55 18
-55 5z"/>
<path d="M4845 6140 c-3 -5 3 -10 14 -10 12 0 21 5 21 10 0 6 -6 10 -14 10 -8
0 -18 -4 -21 -10z"/>
<path d="M3910 6120 c0 -5 7 -10 15 -10 8 0 15 -8 15 -17 0 -13 3 -14 12 -5 9
9 8 15 -8 27 -23 17 -34 19 -34 5z"/>
<path d="M4920 6100 c0 -5 5 -10 10 -10 6 0 10 5 10 10 0 6 -4 10 -10 10 -5 0
-10 -4 -10 -10z"/>
<path d="M4075 6091 c-6 -11 9 -23 19 -14 9 9 7 23 -3 23 -6 0 -12 -4 -16 -9z"/>
<path d="M3815 6060 c3 -5 10 -10 16 -10 5 0 9 5 9 10 0 6 -7 10 -16 10 -8 0
-12 -4 -9 -10z"/>
<path d="M4155 6060 c-4 -6 -3 -16 3 -22 6 -6 12 -6 17 2 4 6 3 16 -3 22 -6 6
-12 6 -17 -2z"/>
<path d="M4220 6025 c0 -8 2 -15 4 -15 2 0 6 7 10 15 3 8 1 15 -4 15 -6 0 -10
-7 -10 -15z"/>
<path d="M5276 6015 c-3 -8 -1 -15 4 -15 6 0 10 7 10 15 0 8 -2 15 -4 15 -2 0
-6 -7 -10 -15z"/>
<path d="M3868 6003 c7 -3 16 -2 19 1 4 3 -2 6 -13 5 -11 0 -14 -3 -6 -6z"/>
<path d="M4275 6000 c3 -5 8 -10 11 -10 2 0 4 5 4 10 0 6 -5 10 -11 10 -5 0
-7 -4 -4 -10z"/>
<path d="M5215 5980 c-3 -5 -2 -10 4 -10 5 0 13 5 16 10 3 6 2 10 -4 10 -5 0
-13 -4 -16 -10z"/>
<path d="M5160 5950 c0 -5 5 -10 10 -10 6 0 10 5 10 10 0 6 -4 10 -10 10 -5 0
-10 -4 -10 -10z"/>
<path d="M5100 5914 c0 -8 5 -12 10 -9 6 3 10 10 10 16 0 5 -4 9 -10 9 -5 0
-10 -7 -10 -16z"/>
<path d="M3685 7960 c3 -5 13 -10 21 -10 8 0 14 5 14 10 0 6 -9 10 -21 10 -11
0 -17 -4 -14 -10z"/>
<path d="M3665 7890 c-3 -5 -1 -10 4 -10 6 0 11 5 11 10 0 6 -2 10 -4 10 -3 0
-8 -4 -11 -10z"/>
<path d="M5445 7820 c-3 -5 1 -10 10 -10 9 0 13 5 10 10 -3 6 -8 10 -10 10 -2
0 -7 -4 -10 -10z"/>
<path d="M3678 7813 c7 -3 16 -2 19 1 4 3 -2 6 -13 5 -11 0 -14 -3 -6 -6z"/>
<path d="M3590 7790 c0 -5 5 -10 10 -10 6 0 10 5 10 10 0 6 -4 10 -10 10 -5 0
-10 -4 -10 -10z"/>
<path d="M3655 7759 c-10 -15 3 -25 16 -12 7 7 7 13 1 17 -6 3 -14 1 -17 -5z"/>
<path d="M3558 7743 c7 -3 16 -2 19 1 4 3 -2 6 -13 5 -11 0 -14 -3 -6 -6z"/>
<path d="M3710 7730 c0 -5 5 -10 10 -10 6 0 10 5 10 10 0 6 -4 10 -10 10 -5 0
-10 -4 -10 -10z"/>
<path d="M3605 7681 c-10 -17 12 -21 25 -6 10 12 10 15 -3 15 -9 0 -18 -4 -22
-9z"/>
<path d="M3680 7670 c-9 -6 -10 -10 -3 -10 6 0 15 5 18 10 8 12 4 12 -15 0z"/>
<path d="M5870 7636 c0 -9 30 -14 35 -6 4 6 -3 10 -14 10 -12 0 -21 -2 -21 -4z"/>
<path d="M3405 7610 c-3 -5 -1 -10 4 -10 6 0 11 5 11 10 0 6 -2 10 -4 10 -3 0
-8 -4 -11 -10z"/>
<path d="M5788 7583 c7 -3 16 -2 19 1 4 3 -2 6 -13 5 -11 0 -14 -3 -6 -6z"/>
<path d="M3558 7533 c7 -3 16 -2 19 1 4 3 -2 6 -13 5 -11 0 -14 -3 -6 -6z"/>
<path d="M3547 7493 c-4 -3 -7 -11 -7 -17 0 -6 5 -5 12 2 6 6 9 14 7 17 -3 3
-9 2 -12 -2z"/>
<path d="M5890 7490 c0 -5 5 -10 11 -10 5 0 7 5 4 10 -3 6 -8 10 -11 10 -2 0
-4 -4 -4 -10z"/>
<path d="M3125 7420 c-3 -5 -1 -10 4 -10 6 0 11 5 11 10 0 6 -2 10 -4 10 -3 0
-8 -4 -11 -10z"/>
<path d="M3358 7423 c6 -2 18 -2 25 0 6 3 1 5 -13 5 -14 0 -19 -2 -12 -5z"/>
<path d="M3448 7418 c9 -9 15 -9 24 0 9 9 7 12 -12 12 -19 0 -21 -3 -12 -12z"/>
<path d="M3500 7420 c0 -5 7 -10 16 -10 8 0 12 5 9 10 -3 6 -10 10 -16 10 -5
0 -9 -4 -9 -10z"/>
<path d="M5850 7415 c0 -8 7 -15 15 -15 8 0 15 7 15 15 0 8 -7 15 -15 15 -8 0
-15 -7 -15 -15z"/>
<path d="M5745 7379 c-10 -15 3 -25 16 -12 7 7 7 13 1 17 -6 3 -14 1 -17 -5z"/>
<path d="M3287 7363 c-4 -3 -7 -13 -7 -21 0 -12 3 -12 15 -2 8 7 15 16 15 21
0 11 -14 12 -23 2z"/>
<path d="M3365 7359 c-4 -6 -5 -13 -2 -16 7 -7 27 6 27 18 0 12 -17 12 -25 -2z"/>
<path d="M3428 7353 c7 -3 16 -2 19 1 4 3 -2 6 -13 5 -11 0 -14 -3 -6 -6z"/>
<path d="M5815 7350 c-3 -5 -1 -10 4 -10 6 0 11 5 11 10 0 6 -2 10 -4 10 -3 0
-8 -4 -11 -10z"/>
<path d="M5881 7324 c0 -11 3 -14 6 -6 3 7 2 16 -1 19 -3 4 -6 -2 -5 -13z"/>
<path d="M5735 7310 c3 -5 8 -10 11 -10 2 0 4 5 4 10 0 6 -5 10 -11 10 -5 0
-7 -4 -4 -10z"/>
<path d="M3335 7290 c-3 -5 3 -10 14 -10 12 0 21 5 21 10 0 6 -6 10 -14 10 -8
0 -18 -4 -21 -10z"/>
<path d="M3218 7283 c7 -3 16 -2 19 1 4 3 -2 6 -13 5 -11 0 -14 -3 -6 -6z"/>
<path d="M5840 7265 c0 -8 5 -15 10 -15 6 0 10 7 10 15 0 8 -4 15 -10 15 -5 0
-10 -7 -10 -15z"/>
<path d="M5910 7234 c0 -8 5 -12 10 -9 6 4 8 11 5 16 -9 14 -15 11 -15 -7z"/>
<path d="M3190 7215 c0 -9 5 -15 11 -13 6 2 11 8 11 13 0 5 -5 11 -11 13 -6 2
-11 -4 -11 -13z"/>
<path d="M3319 7214 c-11 -14 -10 -16 9 -12 13 1 23 7 23 13 1 17 -17 16 -32
-1z"/>
<path d="M3260 7210 c0 -5 5 -10 10 -10 6 0 10 5 10 10 0 6 -4 10 -10 10 -5 0
-10 -4 -10 -10z"/>
<path d="M3395 7209 c-10 -15 3 -25 16 -12 7 7 7 13 1 17 -6 3 -14 1 -17 -5z"/>
<path d="M5855 7180 c-3 -5 1 -10 10 -10 9 0 13 5 10 10 -3 6 -8 10 -10 10 -2
0 -7 -4 -10 -10z"/>
<path d="M3185 7150 c-3 -5 -1 -10 4 -10 6 0 11 5 11 10 0 6 -2 10 -4 10 -3 0
-8 -4 -11 -10z"/>
<path d="M3301 7134 c0 -11 3 -14 6 -6 3 7 2 16 -1 19 -3 4 -6 -2 -5 -13z"/>
<path d="M3100 7106 c0 -9 5 -16 10 -16 6 0 10 4 10 9 0 6 -4 13 -10 16 -5 3
-10 -1 -10 -9z"/>
<path d="M3290 7100 c-12 -7 -12 -12 -3 -21 10 -10 14 -9 19 5 8 22 2 27 -16
16z"/>
<path d="M3215 7090 c-3 -5 1 -10 9 -10 9 0 16 5 16 10 0 6 -4 10 -9 10 -6 0
-13 -4 -16 -10z"/>
<path d="M3357 7094 c-8 -8 1 -24 14 -24 5 0 9 7 9 15 0 15 -12 20 -23 9z"/>
<path d="M3230 7004 c0 -8 5 -12 10 -9 6 3 10 10 10 16 0 5 -4 9 -10 9 -5 0
-10 -7 -10 -16z"/>
<path d="M3280 7011 c0 -17 18 -21 24 -6 3 9 0 15 -9 15 -8 0 -15 -4 -15 -9z"/>
<path d="M3340 7000 c0 -5 5 -10 10 -10 6 0 10 5 10 10 0 6 -4 10 -10 10 -5 0
-10 -4 -10 -10z"/>
<path d="M3150 6979 c0 -5 5 -7 10 -4 6 3 10 8 10 11 0 2 -4 4 -10 4 -5 0 -10
-5 -10 -11z"/>
<path d="M3320 6910 c0 -5 5 -10 10 -10 6 0 10 5 10 10 0 6 -4 10 -10 10 -5 0
-10 -4 -10 -10z"/>
<path d="M3070 6900 c0 -5 5 -10 10 -10 6 0 10 5 10 10 0 6 -4 10 -10 10 -5 0
-10 -4 -10 -10z"/>
<path d="M3168 6903 c7 -3 16 -2 19 1 4 3 -2 6 -13 5 -11 0 -14 -3 -6 -6z"/>
<path d="M3070 6840 c-8 -5 -12 -11 -9 -14 2 -3 11 -1 19 4 8 5 12 11 9 14 -2
3 -11 1 -19 -4z"/>
<path d="M3160 6773 c0 -7 9 -13 20 -13 11 0 20 6 20 13 0 7 -9 13 -20 13 -11
0 -20 -6 -20 -13z"/>
<path d="M3068 6753 c7 -3 16 -2 19 1 4 3 -2 6 -13 5 -11 0 -14 -3 -6 -6z"/>
<path d="M3191 6694 c0 -11 3 -14 6 -6 3 7 2 16 -1 19 -3 4 -6 -2 -5 -13z"/>
<path d="M3040 6674 c0 -8 5 -12 10 -9 6 3 10 10 10 16 0 5 -4 9 -10 9 -5 0
-10 -7 -10 -16z"/>
<path d="M3037 6643 c-4 -3 -7 -11 -7 -17 0 -6 5 -5 12 2 6 6 9 14 7 17 -3 3
-9 2 -12 -2z"/>
<path d="M3200 6620 c0 -5 4 -10 9 -10 6 0 13 5 16 10 3 6 -1 10 -9 10 -9 0
-16 -4 -16 -10z"/>
<path d="M3300 6619 c0 -5 5 -7 10 -4 6 3 10 8 10 11 0 2 -4 4 -10 4 -5 0 -10
-5 -10 -11z"/>
<path d="M3075 6570 c-11 -17 5 -32 21 -19 7 6 11 15 8 20 -7 12 -21 11 -29
-1z"/>
<path d="M3015 6560 c-3 -5 1 -10 10 -10 9 0 13 5 10 10 -3 6 -8 10 -10 10 -2
0 -7 -4 -10 -10z"/>
<path d="M3230 6544 c0 -8 5 -12 10 -9 6 3 10 10 10 16 0 5 -4 9 -10 9 -5 0
-10 -7 -10 -16z"/>
<path d="M3143 6515 c-9 -20 -8 -25 3 -25 8 0 14 10 14 25 0 31 -2 31 -17 0z"/>
<path d="M3073 6463 c-18 -7 -16 -33 2 -33 8 0 15 9 15 20 0 11 -1 20 -2 19
-2 0 -9 -3 -15 -6z"/>
<path d="M5980 6310 c0 -5 5 -10 10 -10 6 0 10 5 10 10 0 6 -4 10 -10 10 -5 0
-10 -4 -10 -10z"/>
<path d="M5898 6253 c7 -3 16 -2 19 1 4 3 -2 6 -13 5 -11 0 -14 -3 -6 -6z"/>
<path d="M5965 6250 c-3 -5 1 -10 10 -10 9 0 13 5 10 10 -3 6 -8 10 -10 10 -2
0 -7 -4 -10 -10z"/>
<path d="M6025 6240 c3 -5 8 -10 11 -10 2 0 4 5 4 10 0 6 -5 10 -11 10 -5 0
-7 -4 -4 -10z"/>
<path d="M5765 6200 c-3 -5 -1 -10 4 -10 6 0 11 5 11 10 0 6 -2 10 -4 10 -3 0
-8 -4 -11 -10z"/>
<path d="M5846 6201 c-4 -5 -2 -12 3 -15 5 -4 12 -2 15 3 4 5 2 12 -3 15 -5 4
-12 2 -15 -3z"/>
<path d="M5937 6193 c-12 -12 -7 -22 8 -17 8 4 15 10 15 15 0 11 -14 12 -23 2z"/>
<path d="M5971 6121 c-8 -5 -9 -11 -3 -15 5 -3 15 1 22 9 14 16 3 20 -19 6z"/>
<path d="M3440 6111 c0 -5 5 -13 10 -16 6 -3 10 -2 10 4 0 5 -4 13 -10 16 -5
3 -10 2 -10 -4z"/>
<path d="M3526 6105 c-3 -8 -1 -15 4 -15 6 0 10 7 10 15 0 8 -2 15 -4 15 -2 0
-6 -7 -10 -15z"/>
<path d="M5895 6110 c-3 -5 -2 -10 4 -10 5 0 13 5 16 10 3 6 2 10 -4 10 -5 0
-13 -4 -16 -10z"/>
<path d="M5760 6099 c0 -5 5 -7 10 -4 6 3 10 8 10 11 0 2 -4 4 -10 4 -5 0 -10
-5 -10 -11z"/>
<path d="M5820 6099 c0 -5 5 -7 10 -4 6 3 10 8 10 11 0 2 -4 4 -10 4 -5 0 -10
-5 -10 -11z"/>
<path d="M3580 6031 c0 -12 6 -21 15 -21 8 0 15 4 15 9 0 5 -7 14 -15 21 -13
10 -15 9 -15 -9z"/>
<path d="M5800 6040 c0 -5 5 -10 10 -10 6 0 10 5 10 10 0 6 -4 10 -10 10 -5 0
-10 -4 -10 -10z"/>
<path d="M5665 6010 c-3 -5 1 -10 9 -10 8 0 18 5 21 10 3 6 -1 10 -9 10 -8 0
-18 -4 -21 -10z"/>
<path d="M5735 6010 c-3 -5 1 -10 9 -10 9 0 16 5 16 10 0 6 -4 10 -9 10 -6 0
-13 -4 -16 -10z"/>
<path d="M5866 5975 c-3 -8 -1 -15 4 -15 6 0 10 7 10 15 0 8 -2 15 -4 15 -2 0
-6 -7 -10 -15z"/>
<path d="M5710 5940 c0 -5 5 -10 10 -10 6 0 10 5 10 10 0 6 -4 10 -10 10 -5 0
-10 -4 -10 -10z"/>
<path d="M5770 5920 c0 -5 7 -10 15 -10 8 0 15 5 15 10 0 6 -7 10 -15 10 -8 0
-15 -4 -15 -10z"/>
<path d="M5620 5890 c0 -5 5 -10 10 -10 6 0 10 5 10 10 0 6 -4 10 -10 10 -5 0
-10 -4 -10 -10z"/>
<path d="M5675 5880 c-4 -6 5 -10 20 -10 15 0 24 4 20 10 -3 6 -12 10 -20 10
-8 0 -17 -4 -20 -10z"/>
<path d="M5752 5861 c2 -7 7 -12 11 -12 12 1 9 15 -3 20 -7 2 -11 -2 -8 -8z"/>
<path d="M5815 5850 c4 -6 11 -8 16 -5 14 9 11 15 -7 15 -8 0 -12 -5 -9 -10z"/>
<path d="M3595 5820 c-3 -5 -2 -10 4 -10 5 0 13 5 16 10 3 6 2 10 -4 10 -5 0
-13 -4 -16 -10z"/>
<path d="M5547 5813 c-4 -3 -7 -11 -7 -17 0 -6 5 -5 12 2 6 6 9 14 7 17 -3 3
-9 2 -12 -2z"/>
<path d="M5640 5804 c0 -9 7 -14 17 -12 25 5 28 28 4 28 -12 0 -21 -6 -21 -16z"/>
<path d="M3480 5795 c0 -9 9 -15 21 -15 18 0 19 2 9 15 -7 8 -16 15 -21 15 -5
0 -9 -7 -9 -15z"/>
<path d="M5723 5803 c-7 -2 -13 -11 -13 -20 0 -20 34 -12 38 10 3 17 -3 20
-25 10z"/>
<path d="M5782 5779 c-11 -16 -9 -19 8 -19 11 0 20 6 20 14 0 24 -15 26 -28 5z"/>
<path d="M5435 5750 c-3 -5 -1 -10 4 -10 6 0 11 5 11 10 0 6 -2 10 -4 10 -3 0
-8 -4 -11 -10z"/>
<path d="M5576 5735 c-3 -9 0 -15 9 -15 8 0 15 7 15 15 0 8 -4 15 -9 15 -5 0
-11 -7 -15 -15z"/>
<path d="M5641 5736 c-7 -8 -8 -17 -3 -20 6 -3 15 1 21 8 7 8 8 17 3 20 -6 3
-15 -1 -21 -8z"/>
<path d="M5695 5719 c-11 -17 1 -21 15 -4 8 9 8 15 2 15 -6 0 -14 -5 -17 -11z"/>
<path d="M5760 5710 c0 -6 7 -10 15 -10 8 0 15 2 15 4 0 2 -7 6 -15 10 -8 3
-15 1 -15 -4z"/>
<path d="M5470 5670 c0 -5 7 -10 15 -10 8 0 15 5 15 10 0 6 -7 10 -15 10 -8 0
-15 -4 -15 -10z"/>
<path d="M5523 5668 c2 -7 12 -13 22 -13 10 0 20 6 23 13 2 7 -6 12 -23 12
-17 0 -25 -5 -22 -12z"/>
<path d="M5610 5666 c0 -9 7 -16 16 -16 9 0 14 5 12 12 -6 18 -28 21 -28 4z"/>
<path d="M5680 5670 c0 -5 7 -10 15 -10 8 0 15 5 15 10 0 6 -7 10 -15 10 -8 0
-15 -4 -15 -10z"/>
<path d="M3504 5646 c-8 -22 3 -33 18 -18 9 9 9 15 0 24 -9 9 -13 7 -18 -6z"/>
<path d="M3574 5622 c-13 -9 -26 -42 -16 -42 15 0 29 16 29 33 0 9 -1 17 -1
17 -1 0 -6 -4 -12 -8z"/>
<path d="M5361 5612 c-14 -26 -7 -42 10 -25 6 6 9 19 7 29 -3 17 -5 17 -17 -4z"/>
<path d="M5420 5611 c-14 -27 -13 -31 10 -31 15 0 20 7 20 25 0 30 -15 33 -30
6z"/>
<path d="M3811 5604 c0 -11 3 -14 6 -6 3 7 2 16 -1 19 -3 4 -6 -2 -5 -13z"/>
<path d="M5306 5605 c-3 -8 -1 -15 4 -15 6 0 10 7 10 15 0 8 -2 15 -4 15 -2 0
-6 -7 -10 -15z"/>
<path d="M5501 5607 c-16 -20 -6 -56 10 -40 6 6 9 21 7 33 -3 21 -4 22 -17 7z"/>
<path d="M5563 5600 c-7 -10 -9 -21 -5 -24 12 -7 45 22 37 33 -9 16 -19 13
-32 -9z"/>
<path d="M5645 5609 c-4 -6 -5 -12 -2 -15 2 -3 7 2 10 11 7 17 1 20 -8 4z"/>
<path d="M5250 5600 c0 -5 5 -10 10 -10 6 0 10 5 10 10 0 6 -4 10 -10 10 -5 0
-10 -4 -10 -10z"/>
<path d="M5120 5588 c0 -4 14 -8 30 -8 17 0 30 4 30 8 0 5 -13 9 -30 9 -16 0
-30 -4 -30 -9z"/>
<path d="M3617 5572 c-10 -10 -14 -22 -10 -25 12 -13 21 -7 25 18 6 30 6 30
-15 7z"/>
<path d="M5270 5540 c0 -5 4 -10 9 -10 6 0 13 5 16 10 3 6 -1 10 -9 10 -9 0
-16 -4 -16 -10z"/>
<path d="M5378 5533 c7 -3 16 -2 19 1 4 3 -2 6 -13 5 -11 0 -14 -3 -6 -6z"/>
<path d="M5437 5525 c6 -17 25 -15 31 3 2 7 -5 12 -17 12 -14 0 -19 -5 -14
-15z"/>
<path d="M5486 5531 c-3 -5 1 -14 8 -20 16 -13 32 2 21 19 -8 12 -22 13 -29 1z"/>
<path d="M3665 5519 c-10 -15 3 -25 16 -12 7 7 7 13 1 17 -6 3 -14 1 -17 -5z"/>
<path d="M5120 5499 c-10 -18 -9 -20 7 -17 10 2 19 11 21 21 5 24 -15 21 -28
-4z"/>
<path d="M5182 5508 c-21 -21 -15 -40 11 -32 29 9 29 8 21 28 -7 19 -16 20
-32 4z"/>
<path d="M5050 5495 c0 -8 5 -15 10 -15 6 0 10 7 10 15 0 8 -4 15 -10 15 -5 0
-10 -7 -10 -15z"/>
<path d="M5250 5490 c0 -11 5 -20 10 -20 6 0 10 9 10 20 0 11 -4 20 -10 20 -5
0 -10 -9 -10 -20z"/>
<path d="M4936 5485 c-3 -8 -1 -15 4 -15 13 0 22 18 11 24 -5 3 -11 -1 -15 -9z"/>
<path d="M5305 5480 c-3 -5 1 -10 9 -10 9 0 16 5 16 10 0 6 -4 10 -9 10 -6 0
-13 -4 -16 -10z"/>
<path d="M5366 5481 c-4 -5 -2 -12 3 -15 5 -4 12 -2 15 3 4 5 2 12 -3 15 -5 4
-12 2 -15 -3z"/>
<path d="M5435 5470 c-3 -6 1 -7 9 -4 18 7 21 14 7 14 -6 0 -13 -4 -16 -10z"/>
<path d="M3971 5444 c0 -11 3 -14 6 -6 3 7 2 16 -1 19 -3 4 -6 -2 -5 -13z"/>
<path d="M5094 5425 c-7 -29 -16 -31 -34 -10 -17 21 -42 19 -38 -2 3 -14 14
-18 51 -17 54 0 58 3 50 32 -7 29 -21 28 -29 -3z"/>
<path d="M5155 5420 c-4 -7 -3 -16 2 -21 12 -12 45 0 40 15 -5 15 -34 19 -42
6z"/>
<path d="M5224 5415 c-3 -8 -3 -19 0 -24 10 -16 36 -1 36 20 0 22 -28 26 -36
4z"/>
<path d="M4827 5407 c-12 -8 -14 -16 -7 -27 8 -13 13 -13 30 -2 16 10 25 10
35 2 10 -9 20 -7 41 6 25 17 27 17 41 -2 11 -15 15 -16 22 -5 18 28 1 38 -55
36 -30 -2 -58 -5 -61 -9 -3 -3 -11 -1 -18 4 -8 6 -17 5 -28 -3z"/>
<path d="M5295 5410 c-3 -5 1 -10 9 -10 8 0 18 5 21 10 3 6 -1 10 -9 10 -8 0
-18 -4 -21 -10z"/>
<path d="M4320 5400 c0 -5 5 -10 11 -10 5 0 7 5 4 10 -3 6 -8 10 -11 10 -2 0
-4 -4 -4 -10z"/>
<path d="M4375 5401 c-3 -5 -1 -12 5 -16 5 -3 10 1 10 9 0 18 -6 21 -15 7z"/>
<path d="M4610 5395 c0 -9 5 -15 11 -13 6 2 11 8 11 13 0 5 -5 11 -11 13 -6 2
-11 -4 -11 -13z"/>
<path d="M4677 5403 c-12 -11 -8 -20 12 -26 18 -4 50 8 41 16 -11 10 -47 17
-53 10z"/>
<path d="M4763 5402 c-8 -5 -9 -13 -3 -22 7 -12 12 -12 22 -2 14 14 -1 35 -19
24z"/>
<path d="M4500 5384 c0 -8 5 -12 10 -9 6 3 10 10 10 16 0 5 -4 9 -10 9 -5 0
-10 -7 -10 -16z"/>
<path d="M4555 5390 c3 -5 8 -10 11 -10 2 0 4 5 4 10 0 6 -5 10 -11 10 -5 0
-7 -4 -4 -10z"/>
<path d="M3960 5383 c0 -6 -3 -18 -6 -27 -3 -9 -1 -16 5 -16 17 0 25 30 12 43
-8 8 -11 8 -11 0z"/>
<path d="M4030 5351 c0 -12 5 -21 10 -21 6 0 10 6 10 14 0 8 -4 18 -10 21 -5
3 -10 -3 -10 -14z"/>
<path d="M4970 5345 c-10 -12 -10 -18 0 -30 18 -22 30 -18 30 9 0 31 -14 40
-30 21z"/>
<path d="M5035 5350 c-9 -15 3 -60 15 -60 13 0 13 57 1 65 -5 3 -13 0 -16 -5z"/>
<path d="M5142 5350 c5 -15 48 -22 48 -8 0 4 -4 8 -9 8 -5 0 -17 3 -27 7 -11
4 -15 2 -12 -7z"/>
<path d="M4090 5336 c0 -9 7 -16 16 -16 9 0 14 5 12 12 -6 18 -28 21 -28 4z"/>
<path d="M4160 5320 c0 -16 5 -30 10 -30 6 0 10 14 10 30 0 17 -4 30 -10 30
-5 0 -10 -13 -10 -30z"/>
<path d="M4221 5334 c0 -11 3 -14 6 -6 3 7 2 16 -1 19 -3 4 -6 -2 -5 -13z"/>
<path d="M4249 5345 c-5 -28 0 -70 8 -72 11 -4 22 45 15 65 -4 12 -21 17 -23
7z"/>
<path d="M4827 5343 c-11 -10 -8 -41 4 -49 17 -10 32 12 24 35 -6 21 -16 26
-28 14z"/>
<path d="M4890 5325 c0 -29 27 -45 41 -24 14 22 6 44 -19 47 -18 3 -22 -1 -22
-23z"/>
<path d="M5086 5336 c7 -19 38 -22 32 -3 -3 6 -12 13 -21 15 -12 2 -15 -1 -11
-12z"/>
<path d="M4307 5308 c8 -44 11 -45 23 -14 11 31 6 46 -15 46 -11 0 -13 -8 -8
-32z"/>
<path d="M4373 5332 c-8 -5 -9 -13 -3 -22 7 -12 12 -12 22 -2 14 14 -1 35 -19
24z"/>
<path d="M4431 5330 c-13 -7 -13 -11 -1 -25 12 -15 14 -15 23 0 11 21 -3 37
-22 25z"/>
<path d="M4491 5330 c-16 -9 -6 -30 15 -30 15 0 20 25 6 34 -4 2 -14 1 -21 -4z"/>
<path d="M4546 5324 c-9 -24 12 -44 24 -24 5 8 8 19 7 24 -6 17 -24 17 -31 0z"/>
<path d="M4607 5327 c-9 -23 8 -40 22 -23 13 15 7 36 -9 36 -4 0 -10 -6 -13
-13z"/>
<path d="M4653 5325 c-9 -25 7 -38 27 -20 15 14 19 14 30 0 9 -11 17 -12 30
-5 13 7 21 7 25 0 11 -18 26 -10 23 12 -3 20 -10 22 -66 24 -46 2 -65 -1 -69
-11z"/>
<path d="M5138 5283 c7 -3 16 -2 19 1 4 3 -2 6 -13 5 -11 0 -14 -3 -6 -6z"/>
<path d="M4370 5260 c0 -5 5 -10 11 -10 5 0 7 5 4 10 -3 6 -8 10 -11 10 -2 0
-4 -4 -4 -10z"/>
<path d="M4490 5260 c-12 -8 -10 -10 8 -10 13 0 20 4 17 10 -7 12 -6 12 -25 0z"/>
<path d="M4550 5263 c0 -4 5 -15 10 -23 8 -13 10 -13 10 2 0 9 -4 20 -10 23
-5 3 -10 3 -10 -2z"/>
<path d="M4775 5258 c-9 -22 4 -43 17 -30 7 7 7 16 0 29 -10 17 -11 17 -17 1z"/>
<path d="M4610 5239 c0 -11 4 -18 10 -14 5 3 7 12 3 20 -7 21 -13 19 -13 -6z"/>
<path d="M4655 5247 c-4 -10 -5 -21 -1 -24 10 -10 18 4 13 24 -4 17 -4 17 -12
0z"/>
<path d="M4710 5245 c0 -8 7 -15 15 -15 8 0 15 7 15 15 0 8 -7 15 -15 15 -8 0
-15 -7 -15 -15z"/>
<path d="M4830 5239 c0 -5 5 -7 10 -4 6 3 10 8 10 11 0 2 -4 4 -10 4 -5 0 -10
-5 -10 -11z"/>
<path d="M6630 2403 c-40 -7 -56 -29 -76 -101 -14 -49 -19 -100 -19 -192 0
-150 14 -195 80 -260 40 -39 52 -45 117 -56 124 -21 187 1 250 89 11 15 26 62
33 105 12 65 12 96 -1 201 -24 204 -32 221 -110 206 -40 -7 -42 -15 -13 -54
25 -34 38 -126 39 -265 0 -108 -14 -147 -66 -181 -36 -23 -144 -17 -173 9 -41
37 -71 115 -71 185 0 91 17 188 42 237 20 41 22 76 3 79 -5 1 -21 0 -35 -2z"/>
<path d="M8556 3891 c-4 -7 -5 -15 -2 -18 9 -9 19 4 14 18 -4 11 -6 11 -12 0z"/>
<path d="M6274 7946 c-19 -14 -18 -15 8 -68 15 -29 48 -89 73 -133 97 -173
176 -400 222 -635 l8 -45 45 3 c25 2 48 7 52 10 18 17 -99 424 -164 572 -39
90 -114 228 -140 257 -8 10 -18 26 -21 36 -8 21 -55 23 -83 3z"/>
<path d="M2728 7881 c-21 -39 -24 -52 -15 -63 14 -16 83 -68 91 -68 3 0 22 25
42 56 30 45 35 58 23 64 -8 5 -29 20 -48 34 -19 14 -42 26 -50 26 -9 0 -28
-22 -43 -49z"/>
<path d="M7592 7648 c-16 -16 -15 -165 1 -322 l13 -118 -36 -29 c-19 -15 -80
-62 -135 -103 -129 -96 -148 -116 -139 -150 3 -14 19 -35 34 -46 32 -23 320
-120 355 -120 29 0 32 -4 55 -83 33 -110 98 -278 116 -298 9 -10 30 -19 45
-19 38 0 75 41 174 196 l80 125 160 4 c201 5 298 26 303 65 5 40 -135 249
-216 325 l-43 40 48 140 c38 114 47 153 48 211 0 95 -11 108 -83 100 -54 -6
-256 -80 -324 -118 l-37 -21 -53 45 c-68 58 -221 158 -267 174 -46 17 -84 17
-99 2z m207 -184 c64 -42 132 -90 152 -105 20 -16 48 -29 62 -29 14 0 96 34
182 75 87 41 159 75 161 75 7 0 -6 -47 -58 -203 -26 -81 -48 -154 -48 -163 0
-18 34 -64 120 -164 87 -101 123 -150 116 -158 -4 -4 -91 -7 -194 -8 l-187 -1
-43 -59 c-23 -32 -60 -93 -81 -134 -22 -41 -46 -84 -54 -95 -15 -19 -16 -18
-35 25 -10 25 -34 104 -52 175 -18 72 -37 136 -42 143 -6 6 -28 12 -49 12 -39
0 -285 75 -304 92 -11 11 51 70 100 95 48 25 163 102 170 114 4 6 0 50 -8 97
-37 210 -46 292 -31 292 4 0 59 -34 123 -76z"/>
<path d="M2621 7608 c-4 -13 -14 -48 -20 -78 -7 -30 -19 -73 -27 -95 -28 -82
-64 -387 -67 -567 l-2 -173 59 -3 59 -3 -6 56 c-3 31 -10 62 -16 69 -6 7 -7
26 -1 51 5 22 10 76 11 120 1 44 8 99 16 123 15 50 17 132 3 132 -6 0 -3 11 5
24 9 13 25 74 37 137 14 75 29 124 45 148 34 50 33 52 -60 75 -23 5 -29 3 -36
-16z"/>
<path d="M6566 6883 c-3 -4 3 -34 20 -93 11 -39 24 -50 59 -50 44 0 65 27 72
93 l6 55 -77 -1 c-42 0 -78 -2 -80 -4z"/>
<path d="M7359 6501 c-13 -11 -21 -22 -18 -25 3 -3 16 5 29 19 28 30 22 33
-11 6z"/>
<path d="M7091 6354 c7 -9 14 -23 15 -31 4 -24 10 -25 35 -5 l23 19 -32 17
c-41 21 -59 21 -41 0z"/>
<path d="M6820 6170 c0 -22 33 -60 51 -60 27 0 24 17 -8 45 -30 26 -43 31 -43
15z"/>
<path d="M6556 5971 c-8 -12 72 -83 84 -76 12 8 -48 85 -66 85 -7 0 -15 -4
-18 -9z"/>
<path d="M6346 5741 c-8 -12 51 -71 70 -71 23 0 16 16 -21 49 -39 34 -41 35
-49 22z"/>
<path d="M7252 5495 l2 -135 53 3 c29 1 53 7 53 12 0 17 -20 139 -25 154 -4
10 -8 11 -20 1 -18 -15 -35 -5 -35 23 0 35 16 53 33 39 12 -10 16 -9 21 4 10
25 -2 34 -44 34 l-40 0 2 -135z m68 -56 c0 -33 -3 -40 -17 -37 -22 4 -31 67
-12 79 21 12 29 1 29 -42z"/>
<path d="M7690 5515 c-6 -14 -10 -29 -10 -33 0 -4 -18 -30 -40 -59 -35 -47
-70 -105 -70 -117 0 -6 87 -56 99 -56 6 0 11 6 11 14 0 23 68 148 97 178 30
32 26 42 -36 76 l-41 23 -10 -26z m56 -49 c3 -8 -9 -36 -28 -63 -18 -26 -35
-57 -38 -68 -7 -25 -34 -26 -38 -1 -4 19 14 61 36 84 6 7 12 24 12 38 0 19 5
24 25 24 14 0 28 -7 31 -14z"/>
<path d="M6833 5505 l-23 -16 34 -68 c19 -37 41 -73 50 -80 8 -7 18 -28 22
-47 8 -46 22 -51 50 -21 13 14 33 28 44 32 29 9 25 18 -26 60 -25 21 -49 47
-54 59 -5 15 -16 21 -36 21 -20 0 -30 6 -32 19 -4 16 0 18 28 13 28 -6 31 -5
28 16 -4 28 -53 35 -85 12z"/>
<path d="M6140 5468 c0 -7 18 -28 40 -46 39 -32 40 -32 40 -10 0 15 -12 31
-33 46 -38 25 -47 27 -47 10z"/>
<path d="M8065 5230 c-3 -6 -32 -28 -63 -49 -31 -21 -70 -50 -85 -65 -15 -14
-39 -26 -52 -26 -39 0 -40 -20 -2 -58 l36 -36 83 80 c46 44 98 89 116 99 36
22 39 32 15 51 -22 16 -40 18 -48 4z m-130 -170 c-3 -5 -10 -10 -16 -10 -5 0
-9 5 -9 10 0 6 7 10 16 10 8 0 12 -4 9 -10z"/>
<path d="M5975 5220 c-7 -12 42 -60 61 -60 21 0 16 23 -10 48 -26 24 -41 28
-51 12z"/>
<path d="M6536 5208 c-26 -37 -20 -66 17 -83 44 -21 118 -75 140 -102 26 -32
39 -29 75 16 l31 39 -45 17 c-25 9 -79 44 -120 76 -40 32 -76 59 -78 59 -3 0
-12 -10 -20 -22z"/>
<path d="M5807 4924 c-14 -15 -6 -32 17 -38 13 -3 31 -9 40 -12 28 -11 18 22
-11 37 -16 7 -31 15 -34 16 -3 2 -8 0 -12 -3z"/>
<path d="M6415 4732 c8 -64 14 -75 35 -62 12 7 12 12 2 22 -6 6 -12 18 -12 26
0 12 13 14 69 8 37 -3 85 -13 106 -22 42 -17 42 -17 65 33 l17 38 -81 0 c-45
0 -110 3 -145 7 l-63 8 7 -58z"/>
<path d="M8115 4780 c-33 -4 -90 -8 -127 -9 l-67 -1 6 -32 c9 -50 25 -63 54
-45 13 8 56 17 95 21 101 8 130 16 153 38 42 39 20 44 -114 28z"/>
<path d="M5707 4664 c-9 -10 -9 -44 1 -44 4 0 14 5 22 10 13 8 13 11 -1 25 -8
8 -18 12 -22 9z"/>
<path d="M4284 4627 c-3 -9 -4 -26 -2 -39 2 -19 10 -23 46 -26 32 -2 42 0 42
12 0 9 -11 16 -27 18 -20 2 -28 9 -28 22 0 24 -23 33 -31 13z"/>
<path d="M5696 4603 c-12 -12 -6 -43 9 -43 8 0 15 9 15 19 0 21 -13 34 -24 24z"/>
<path d="M4602 4570 c3 -30 6 -33 46 -36 23 -2 42 0 42 5 0 5 3 16 6 24 6 16
-3 20 -64 32 -33 7 -33 6 -30 -25z"/>
<path d="M3959 4569 c-21 -40 -5 -65 21 -33 10 11 23 14 51 9 41 -7 57 6 32
26 -24 21 -92 19 -104 -2z"/>
<path d="M4934 4554 c3 -9 6 -18 6 -20 0 -2 7 -4 15 -4 8 0 15 -5 15 -10 0 -6
8 -5 20 2 27 17 25 24 -11 37 -43 15 -52 14 -45 -5z"/>
<path d="M3710 4485 c-19 -14 -45 -25 -57 -25 -16 0 -23 -6 -23 -19 0 -29 17
-34 39 -12 11 11 39 25 63 32 76 20 72 18 58 34 -17 21 -39 18 -80 -10z"/>
<path d="M4914 4477 c-4 -12 0 -23 12 -32 26 -20 38 -14 42 20 3 26 2 27 -13
15 -14 -12 -18 -12 -25 0 -7 12 -10 11 -16 -3z"/>
<path d="M2997 1642 c-9 -10 -17 -23 -17 -28 -1 -20 -106 -159 -123 -162 -12
-3 -22 8 -33 35 -8 21 -26 62 -41 91 -24 49 -27 52 -64 52 -37 0 -39 -2 -39
-30 0 -25 4 -30 24 -30 19 0 28 -10 45 -52 32 -78 34 -81 74 -101 33 -17 38
-17 65 -3 17 9 49 39 73 67 24 28 64 70 88 94 53 51 53 79 0 83 -24 2 -40 -3
-52 -16z"/>
<path d="M3110 1639 c0 -6 11 -24 25 -41 13 -16 30 -46 36 -68 7 -23 31 -58
60 -86 45 -44 50 -47 100 -45 78 1 87 7 124 79 38 77 83 128 97 114 6 -6 4
-32 -5 -71 -8 -34 -11 -64 -6 -67 12 -7 37 36 45 81 3 22 11 45 16 52 21 26
79 -19 98 -76 7 -21 29 -58 50 -82 l38 -44 78 2 c63 2 82 6 92 20 47 66 64 92
78 123 9 19 23 42 31 51 32 37 87 -11 100 -85 8 -50 28 -72 35 -39 3 15 7 13
18 -11 29 -56 173 -84 219 -42 16 15 19 15 31 1 16 -20 36 -19 44 1 4 10 9 50
13 90 6 76 11 85 34 58 25 -30 88 -56 109 -44 18 10 19 6 22 -57 3 -65 4 -68
28 -68 l25 0 0 107 0 108 -28 0 c-18 0 -30 -6 -33 -17 -20 -65 -53 -70 -89
-14 -22 36 -30 41 -64 41 -44 0 -51 -10 -51 -73 0 -54 -19 -89 -52 -101 -46
-16 -74 4 -82 58 -4 27 -11 44 -17 40 -6 -3 -7 -19 -4 -35 8 -34 -8 -59 -36
-59 -20 0 -39 28 -39 57 0 28 -72 116 -103 127 -20 7 -34 7 -47 -2 -12 -7 -21
-8 -25 -2 -15 25 -45 7 -82 -47 -111 -164 -103 -155 -136 -149 -43 9 -56 23
-87 91 -35 77 -79 112 -153 121 -35 4 -57 3 -61 -4 -4 -6 -19 -9 -34 -6 -23 4
-33 -3 -73 -53 -25 -32 -56 -77 -69 -100 -17 -30 -30 -43 -45 -43 -30 0 -72
44 -81 83 -8 39 -45 119 -59 129 -16 12 -85 9 -85 -3z"/>
<path d="M7135 882 c-47 -16 -94 -70 -80 -92 8 -12 226 -12 246 1 16 9 -10 51
-46 75 -28 18 -90 26 -120 16z"/>
</g>
</svg>
