<?xml version="1.0" standalone="no"?>
<!DOCTYPE svg PUBLIC "-//W3C//DTD SVG 20010904//EN"
 "http://www.w3.org/TR/2001/REC-SVG-20010904/DTD/svg10.dtd">
<svg version="1.0" xmlns="http://www.w3.org/2000/svg"
 width="1024.000000pt" height="1024.000000pt" viewBox="0 0 1024.000000 1024.000000"
 preserveAspectRatio="xMidYMid meet">

<g transform="translate(0.000000,1024.000000) scale(0.100000,-0.100000)"
fill="#000000" stroke="none">
<path d="M4140 9071 l-95 -6 -6 -205 c-3 -113 -7 -226 -8 -251 l-1 -45 -192
-28 c-232 -33 -527 -106 -712 -177 -155 -59 -133 -49 -320 -139 l-149 -71
-286 -3 c-376 -4 -481 -19 -776 -117 -101 -34 -234 -88 -283 -117 -10 -6 -13
-254 -12 -1267 0 -693 0 -1263 0 -1267 0 -5 7 -8 15 -8 9 0 76 -20 150 -45
149 -50 317 -87 469 -104 54 -6 102 -13 106 -16 4 -3 11 -22 15 -42 3 -21 19
-81 35 -133 16 -52 34 -120 41 -150 11 -56 30 -122 54 -195 7 -22 23 -74 35
-115 12 -41 46 -147 75 -235 93 -280 127 -387 160 -510 18 -66 45 -160 59
-210 67 -226 136 -588 181 -952 56 -450 75 -708 75 -1023 0 -221 3 -280 13
-289 10 -8 638 -11 2323 -13 1270 0 2336 -2 2369 -2 l60 -1 7 50 c3 28 7 149
7 270 1 286 16 538 47 805 33 287 81 600 103 675 5 17 12 48 16 70 10 64 72
316 122 495 43 159 62 220 178 580 84 260 132 415 171 555 19 72 46 164 60
206 13 41 28 95 32 120 7 43 9 44 47 47 146 10 382 61 525 113 47 17 106 38
132 46 l48 15 0 1204 c0 662 -3 1231 -7 1264 -6 59 -6 60 -44 70 -21 6 -41 15
-44 20 -7 12 -38 25 -200 87 -158 61 -190 69 -385 98 -202 30 -580 46 -628 26
-17 -7 -33 -19 -36 -27 -7 -19 -46 -18 -46 1 0 8 -7 15 -15 15 -8 0 -77 33
-152 73 -76 41 -169 86 -208 101 -38 16 -97 39 -130 52 -212 83 -537 154 -835
183 l-65 6 -9 250 c-4 138 -10 252 -12 254 -16 16 -1816 27 -2074 12z m1974
-102 c3 -3 9 -115 12 -248 8 -275 8 -276 78 -266 39 6 261 -15 374 -35 98 -17
426 -109 497 -138 39 -16 88 -35 110 -42 60 -19 291 -137 360 -183 206 -139
421 -331 536 -479 117 -149 118 -151 158 -144 19 3 39 10 44 15 12 12 -18 63
-87 149 -62 76 -296 332 -305 332 -3 0 -39 32 -80 70 -40 39 -67 70 -60 70 8
0 106 -5 219 -10 229 -11 326 -22 480 -52 111 -21 338 -97 380 -127 14 -10 40
-25 58 -35 l32 -17 -2 -1185 -3 -1186 -50 -20 c-213 -83 -431 -128 -625 -128
-238 0 -490 49 -709 137 -103 41 -135 41 -139 -3 -4 -42 16 -57 141 -103 122
-45 217 -73 332 -95 209 -41 239 -46 271 -46 19 0 34 -4 34 -10 0 -17 -94
-367 -129 -482 -12 -38 -30 -98 -42 -135 -11 -38 -27 -90 -35 -118 -7 -27 -24
-78 -38 -113 -13 -34 -36 -104 -51 -155 -15 -50 -37 -121 -50 -157 -35 -100
-130 -424 -153 -525 -148 -646 -209 -1118 -232 -1787 -4 -141 -11 -262 -15
-267 -7 -12 -4513 -15 -4531 -3 -7 4 -17 125 -28 327 -32 597 -36 660 -56 820
-48 392 -150 891 -259 1260 -16 55 -39 136 -50 180 -12 44 -31 103 -41 130
-23 61 -137 424 -175 555 -15 52 -36 124 -47 160 -23 74 -68 274 -68 306 0 24
17 30 127 40 124 11 276 44 413 90 132 44 194 75 205 103 6 15 -20 61 -34 61
-5 0 -53 -18 -108 -39 -120 -48 -176 -63 -368 -97 -127 -23 -178 -27 -330 -27
-157 0 -195 4 -300 27 -153 34 -269 70 -320 99 -30 17 -41 31 -46 56 -14 69
-21 912 -14 1614 l7 718 52 29 c69 40 282 118 386 141 138 31 293 49 493 56
131 4 187 3 187 -5 0 -6 -39 -42 -88 -80 -148 -116 -329 -306 -440 -461 -18
-24 -32 -48 -32 -53 0 -4 16 -16 36 -26 l37 -17 44 50 c25 28 63 73 85 100
136 171 376 377 592 507 182 111 440 220 631 269 44 11 117 31 163 44 137 40
249 57 422 64 l165 6 -3 252 c-2 138 -1 257 3 262 6 11 1968 11 1979 0z"/>
<path d="M4261 8361 c-11 -7 -13 -24 -8 -74 22 -235 -84 -497 -262 -650 -54
-46 -223 -137 -255 -137 -28 0 -66 -23 -66 -40 0 -25 33 -50 66 -50 55 -1 172
-66 266 -149 25 -23 73 -81 106 -130 92 -138 139 -276 157 -469 8 -83 14 -89
78 -76 l42 9 7 90 c12 134 65 304 132 420 81 141 243 264 392 298 94 22 102
76 12 88 -60 9 -157 58 -245 124 -106 80 -204 217 -248 346 -32 93 -55 231
-55 332 l0 77 -52 0 c-29 0 -59 -4 -67 -9z m91 -482 c65 -163 220 -338 365
-414 21 -11 19 -14 -42 -53 -141 -93 -249 -237 -310 -414 -18 -50 -34 -87 -37
-82 -3 5 -13 34 -23 64 -30 94 -138 268 -217 349 -42 44 -145 111 -170 111
-31 0 -19 13 53 60 39 25 94 66 123 92 65 57 169 214 191 288 9 30 19 61 21
69 7 20 14 9 46 -70z"/>
<path d="M5113 6728 c4 -227 7 -1188 7 -2136 l0 -1723 53 3 52 3 -2 90 c-1 50
-5 1004 -10 2120 -5 1117 -12 2036 -17 2043 -4 7 -26 12 -48 12 l-41 0 6 -412z"/>
<path d="M7428 6417 c-8 -7 -29 -46 -47 -87 -63 -144 -156 -234 -318 -305
-231 -101 -470 -127 -726 -79 -176 33 -270 63 -446 146 -35 16 -75 30 -90 31
-23 2 -26 -2 -29 -34 -4 -46 11 -57 158 -122 177 -78 458 -137 653 -137 304 0
577 90 735 244 40 38 78 80 85 93 7 12 30 48 51 79 22 32 45 82 52 111 l12 53
-26 6 c-15 3 -32 7 -39 9 -6 2 -17 -2 -25 -8z"/>
<path d="M2836 6413 c-38 -4 -38 -5 -33 -40 9 -55 110 -215 180 -285 131 -132
317 -211 602 -253 89 -13 125 -14 209 -5 307 34 526 92 669 177 54 32 57 37
57 73 0 21 -5 42 -10 45 -6 4 -66 -19 -133 -51 -67 -31 -149 -66 -182 -76
-173 -53 -397 -85 -530 -74 -97 8 -259 41 -338 68 -188 65 -359 223 -403 374
-11 39 -20 54 -32 52 -9 -1 -34 -3 -56 -5z"/>
<path d="M4572 4998 c-6 -8 -12 -196 -15 -493 -6 -513 -23 -737 -87 -1180 -39
-266 -137 -589 -232 -765 -119 -220 -322 -369 -505 -370 -102 0 -242 73 -326
172 -75 88 -156 234 -172 308 -4 19 -14 44 -21 55 -20 31 -56 172 -63 250 l-6
70 -50 -3 c-27 -1 -52 -6 -56 -10 -16 -17 56 -307 100 -404 11 -24 32 -72 46
-107 84 -202 271 -376 457 -423 163 -41 362 29 511 179 91 92 135 153 195 270
150 292 247 756 293 1403 17 238 18 1008 1 1038 -14 24 -53 30 -70 10z"/>
<path d="M5683 4994 c-3 -9 -3 -190 1 -401 22 -1244 165 -1912 486 -2266 127
-141 333 -229 499 -214 107 10 216 70 322 176 73 73 94 103 141 196 59 116
101 236 149 425 40 157 41 150 -31 150 l-60 0 0 -45 c0 -106 -61 -308 -138
-458 -77 -150 -154 -232 -270 -289 -81 -41 -90 -43 -166 -42 -216 4 -362 115
-517 392 -66 119 -159 387 -185 530 -53 303 -75 444 -84 544 -26 307 -41 597
-46 938 l-6 375 -44 3 c-34 2 -46 -1 -51 -14z"/>
<path d="M5130 2583 c-55 -20 -68 -86 -25 -128 49 -49 115 -17 115 56 0 29 -6
42 -26 58 -27 21 -38 24 -64 14z"/>
<path d="M6867 8804 c-4 -4 -7 -20 -7 -34 0 -33 17 -41 150 -70 129 -28 237
-58 285 -80 157 -71 199 -92 251 -125 32 -21 71 -51 87 -68 l28 -30 97 21
c145 31 155 32 328 32 99 0 195 -6 254 -16 52 -8 118 -18 147 -21 51 -5 52 -5
58 23 4 16 8 35 11 42 5 17 1 18 -141 42 -157 27 -485 30 -614 5 -46 -9 -87
-13 -90 -8 -31 41 -386 201 -541 243 -140 38 -287 60 -303 44z"/>
<path d="M8805 8436 c-47 -21 -60 -41 -46 -75 15 -35 62 -71 95 -71 26 0 58
37 69 79 4 18 -1 31 -23 52 -31 32 -50 35 -95 15z"/>
<path d="M1425 5020 c-17 -27 13 -37 211 -71 141 -24 167 -22 162 13 -3 18
-11 22 -53 25 -27 2 -105 13 -172 24 -143 22 -140 22 -148 9z"/>
<path d="M8750 5010 c-52 -10 -131 -24 -175 -31 -82 -13 -97 -21 -88 -47 4
-10 16 -13 42 -9 94 15 172 29 236 43 39 9 80 18 93 20 14 3 22 12 22 24 0 24
-3 24 -130 0z"/>
<path d="M1685 4603 c-16 -2 -75 -11 -130 -20 -55 -8 -136 -21 -180 -27 -70
-10 -80 -14 -83 -33 -5 -35 30 -47 86 -29 26 8 103 24 172 36 118 19 209 37
237 45 7 3 10 11 7 20 -6 15 -37 17 -109 8z"/>
<path d="M8497 4597 c-3 -7 -2 -19 1 -24 4 -6 81 -20 172 -32 91 -12 198 -26
239 -31 65 -9 77 -8 93 7 10 9 15 20 10 25 -13 13 -107 27 -284 43 -87 8 -173
17 -191 20 -25 5 -36 3 -40 -8z"/>
<path d="M1835 4238 c-11 -7 -54 -26 -95 -44 -189 -81 -225 -97 -229 -100 -3
-3 5 -14 17 -27 18 -18 25 -20 40 -10 9 7 86 46 170 87 97 48 152 80 150 88
-6 18 -29 20 -53 6z"/>
<path d="M8430 4216 c0 -20 14 -30 83 -64 152 -73 239 -106 255 -95 24 14 26
32 5 40 -10 3 -87 37 -172 75 -85 37 -158 68 -163 68 -4 0 -8 -11 -8 -24z"/>
<path d="M8242 3850 c-10 -17 -8 -24 24 -52 42 -39 299 -232 331 -249 19 -10
26 -9 43 6 11 10 17 21 15 25 -5 8 -231 174 -275 201 -14 9 -42 33 -63 53 -44
41 -57 44 -75 16z"/>
<path d="M1798 3707 c-186 -133 -196 -142 -181 -159 9 -10 20 -18 24 -18 9 0
217 151 289 209 19 15 50 36 68 45 18 9 36 24 39 33 6 15 -12 33 -32 32 -5 0
-99 -64 -207 -142z"/>
<path d="M7956 3574 c-3 -9 -6 -19 -6 -24 0 -8 84 -115 196 -249 l22 -26 21
25 c22 27 27 50 11 50 -15 0 -169 158 -197 202 -25 41 -37 47 -47 22z"/>
<path d="M2175 3447 c-127 -127 -133 -135 -116 -151 9 -9 21 -16 24 -16 4 0
40 35 79 78 40 42 96 100 126 129 52 50 64 81 34 91 -7 2 -73 -57 -147 -131z"/>
<path d="M8405 3038 c-2 -7 -6 -74 -8 -148 -6 -141 -22 -212 -77 -320 -31 -62
-124 -183 -163 -212 -68 -51 -200 -119 -262 -136 -35 -9 -67 -23 -70 -31 -10
-27 29 -63 95 -89 74 -29 217 -120 270 -172 125 -125 191 -283 207 -500 l8
-105 68 -3 67 -3 0 48 c0 88 53 269 110 378 62 118 86 152 157 222 57 57 208
139 274 149 31 5 40 12 48 36 6 17 9 34 6 38 -3 5 -36 17 -73 29 -106 32 -267
143 -336 232 -54 68 -156 256 -156 285 0 8 -9 40 -20 71 -14 42 -20 83 -20
150 l0 93 -60 0 c-40 0 -62 -4 -65 -12z m106 -427 c64 -159 229 -361 344 -418
l57 -29 -68 -40 c-145 -84 -273 -247 -324 -412 -11 -35 -24 -71 -29 -80 -11
-19 -8 -24 -41 72 -56 164 -167 306 -317 406 -45 30 -82 58 -83 61 0 4 12 10
28 14 140 34 334 265 383 456 7 27 15 47 17 44 3 -3 18 -36 33 -74z"/>
<path d="M2248 2893 c-31 -8 -26 -77 32 -418 22 -133 38 -325 44 -543 2 -79 8
-148 13 -153 6 -6 30 -9 54 -7 l44 3 -3 90 c-7 198 -32 508 -52 640 -25 171
-70 377 -84 387 -12 8 -21 8 -48 1z"/>
<path d="M2373 1526 c-47 -16 -55 -28 -48 -70 17 -87 88 -116 139 -55 63 75 2
159 -91 125z"/>
</g>
</svg>
