<svg width="30" height="30" viewBox="0 0 1024 1024" xmlns="http://www.w3.org/2000/svg">

<g fill="#240404">
<path d="M2035 8972 c-24 -3 -94 -68 -343 -315 -173 -172 -317 -319 -321 -327 -3 -8 -5 -52 -3 -97 l4 -83 116 0 c64 0 141 -3 170 -6 l52 -7 0 -527 0 -528 263 -7 c144 -3 300 -5 347 -3 l85 3 3 225 c1 123 1 229 -2 235 -2 6 -42 9 -105 7 l-101 -3 0 -129 c0 -71 -3 -130 -7 -132 -5 -2 -63 -2 -130 0 l-123 3 0 530 0 529 -94 0 c-52 0 -97 4 -100 8 -8 13 82 128 199 255 l108 118 65 -71 c36 -39 87 -92 114 -118 43 -41 138 -160 138 -174 0 -3 -39 -8 -86 -11 -48 -3 -88 -8 -90 -9 -2 -2 0 -127 4 -278 l7 -275 103 -3 102 -3 0 170 c0 93 3 176 6 185 5 14 31 16 180 16 l174 0 0 66 0 65 -93 97 c-200 209 -573 580 -592 589 -11 5 -33 7 -50 5z""/>

<path d="M4143 8831 c6 -113 11 -141 43 -227 44 -123 54 -169 57 -264 2 -73 1
-78 -51 -176 -134 -253 -526 -702 -1077 -1235 -545 -526 -701 -696 -861 -936
-160 -240 -315 -620 -379 -925 -14 -68 -32 -212 -41 -323 -35 -427 26 -845
192 -1334 20 -57 49 -132 64 -165 15 -34 44 -99 65 -146 20 -47 50 -106 66
-133 16 -26 29 -50 29 -52 0 -23 307 -475 352 -518 47 -46 56 -78 63 -219 4
-76 5 -138 3 -138 -12 0 -144 127 -358 343 l-226 229 -38 -7 c-44 -9 -76 -38
-450 -422 l-236 -241 0 -76 0 -76 173 0 174 0 7 -231 c3 -127 9 -235 12 -240
3 -5 158 -9 344 -9 l340 0 2 238 3 237 128 2 c70 0 128 0 129 0 1 -1 4 -108 7
-237 l6 -235 3160 3 3160 2 -2 413 c-1 226 -7 475 -12 552 -37 488 -44 527
-56 325 -7 -107 -10 -127 -16 -95 -4 22 -8 93 -8 158 -1 214 -31 507 -76 742
-20 110 -30 180 -66 470 -16 138 -37 279 -45 315 -43 187 -61 432 -74 1019 -5
238 -17 504 -25 590 -23 235 -54 471 -64 489 -9 18 -21 141 -47 492 -14 192
-29 311 -77 600 -8 47 -20 120 -26 163 -7 43 -39 171 -72 285 -33 114 -73 254
-90 312 -17 58 -37 116 -46 130 -20 29 -21 138 -3 223 11 53 13 57 40 57 27 0
29 4 36 48 4 26 8 115 8 197 l1 150 -2074 3 -2074 2 6 -129z m3922 -119 c-4
-20 -20 -66 -37 -102 -25 -54 -31 -82 -35 -166 -7 -118 5 -195 52 -349 97
-321 128 -439 140 -530 l7 -50 -1599 0 c-1530 0 -1600 -1 -1627 -18 -27 -18
-27 -18 8 35 20 29 36 56 36 60 0 4 28 54 62 110 88 147 98 174 108 290 11
118 12 392 2 458 -6 38 -11 46 -37 53 -16 5 -38 13 -48 19 -12 6 -22 4 -33 -7
-9 -8 -30 -15 -49 -15 -19 0 -35 -6 -38 -15 -3 -8 -5 -63 -3 -122 5 -172 -9
-413 -27 -453 -20 -47 -63 -81 -129 -106 -10 -3 -18 -11 -18 -16 0 -6 7 -7 15
-4 51 20 49 21 42 -14 -9 -44 9 -70 78 -115 30 -19 55 -38 55 -43 0 -4 -10
-21 -22 -39 -130 -177 -182 -233 -219 -233 -23 0 -27 5 -33 38 -3 20 -6 53 -6
73 0 20 -7 50 -15 65 -8 16 -15 39 -15 50 0 12 -6 27 -14 34 -8 6 -12 18 -9
26 4 12 0 14 -23 8 -46 -11 -126 -73 -164 -126 -46 -65 -167 -168 -197 -168
-28 0 -43 32 -43 95 0 24 -5 56 -10 70 l-10 27 -100 -7 c-55 -4 -100 -4 -100
0 0 15 160 235 215 295 52 56 131 179 177 275 l43 90 -1 146 c-1 150 -13 227
-44 289 -16 31 -24 79 -21 117 1 9 409 12 1833 13 1007 0 1834 2 1836 5 13 13
23 -12 17 -43z m-3414 -1133 c11 -28 10 -33 -6 -45 -24 -18 -76 -18 -99 -1
-17 13 -16 16 20 45 48 40 68 40 85 1z m275 -154 c-3 -9 -11 -13 -16 -10 -8 5
-7 11 1 21 14 18 24 11 15 -11z m3614 -1360 l-7 -70 -1 66 c-1 36 1 69 5 72
10 10 10 8 3 -68z m-13 -97 c-3 -8 -6 -5 -6 6 -1 11 2 17 5 13 3 -3 4 -12 1
-19z m-1787 -1340 c112 -105 167 -174 172 -219 3 -23 1 -24 -75 -29 l-78 -5 1
-516 c0 -284 -2 -523 -6 -533 -5 -14 -24 -16 -125 -16 l-119 0 0 123 c0 67 -4
128 -9 135 -6 10 -34 12 -107 10 l-99 -3 -3 99 c-1 55 1 103 7 109 5 5 48 12
95 14 73 5 86 9 92 25 6 20 23 538 18 549 -2 4 -44 10 -93 13 l-90 7 26 42
c15 23 41 60 57 82 31 42 206 214 218 215 4 0 57 -46 118 -102z m-4546 -2430
c124 -124 177 -191 161 -206 -4 -4 -41 -9 -83 -12 l-77 -5 4 -232 4 -233 -132
0 -131 0 -2 233 -3 232 -92 3 c-51 1 -93 7 -93 11 0 18 86 119 194 229 61 61
112 112 113 112 2 0 63 -60 137 -132z"/>
<path d="M5010 8600 c11 -11 23 -20 27 -20 3 0 -2 9 -12 20 -10 11 -22 20 -27
20 -4 0 1 -9 12 -20z"/>
<path d="M4959 8513 c-13 -15 -12 -15 9 -4 23 12 28 21 13 21 -5 0 -15 -7 -22
-17z"/>
<path d="M4854 8329 c-19 -22 -19 -22 4 -10 12 6 22 16 22 21 0 15 -5 12 -26
-11z"/>
<path d="M4226 7625 c-11 -8 -15 -15 -9 -15 6 0 16 7 23 15 16 19 11 19 -14 0z"/>
<path d="M5033 7588 c-37 -42 -37 -54 0 -19 21 19 37 36 37 38 0 10 -19 0 -37
-19z"/>
<path d="M4180 7590 c-9 -6 -10 -10 -3 -10 6 0 15 5 18 10 8 12 4 12 -15 0z"/>
<path d="M4194 7568 l-19 -23 23 19 c21 18 27 26 19 26 -2 0 -12 -10 -23 -22z"/>
<path d="M4145 7560 c-3 -5 1 -10 9 -10 9 0 16 5 16 10 0 6 -4 10 -9 10 -6 0
-13 -4 -16 -10z"/>
<path d="M4588 7563 c7 -3 16 -2 19 1 4 3 -2 6 -13 5 -11 0 -14 -3 -6 -6z"/>
</g>
</svg>
