<?xml version="1.0" standalone="no"?>
<!DOCTYPE svg PUBLIC "-//W3C//DTD SVG 20010904//EN"
 "http://www.w3.org/TR/2001/REC-SVG-20010904/DTD/svg10.dtd">
<svg version="1.0" xmlns="http://www.w3.org/2000/svg"
 width="742.000000pt" height="742.000000pt" viewBox="0 0 742.000000 742.000000"
 preserveAspectRatio="xMidYMid meet">

<g transform="translate(0.000000,742.000000) scale(0.100000,-0.100000)"
fill="#000000" stroke="none">
<path d="M3160 6608 c-47 -4 -99 -9 -116 -13 l-31 -5 -6 -96 c-3 -53 -9 -100
-14 -105 -5 -5 -96 -22 -203 -39 -107 -16 -215 -36 -240 -44 -25 -8 -83 -24
-129 -36 -182 -46 -403 -143 -584 -256 -142 -89 -203 -138 -322 -260 -117
-120 -121 -123 -338 -214 -43 -18 -97 -45 -121 -60 l-43 -28 -6 -83 c-4 -46
-7 -467 -7 -935 l0 -852 27 -7 c16 -3 50 -21 78 -38 l50 -32 175 0 174 0 26
-60 c29 -69 110 -210 155 -270 78 -102 134 -222 161 -340 8 -38 27 -101 40
-140 14 -38 34 -108 45 -155 10 -47 25 -109 34 -138 8 -30 26 -158 40 -285 14
-128 35 -304 46 -392 14 -104 23 -247 26 -407 l6 -246 31 -6 c26 -4 2887 -10
3281 -7 66 1 126 5 133 9 8 6 13 52 16 158 7 265 17 427 32 528 8 55 17 102
19 105 5 9 24 149 40 306 37 342 186 827 318 1028 65 99 129 210 146 254 23
56 29 58 210 58 164 0 167 0 224 29 31 16 63 36 70 44 9 12 12 222 12 931 0
859 -1 918 -18 942 -19 28 -98 69 -277 144 -114 48 -116 49 -225 160 -114 116
-168 162 -270 231 -291 198 -649 334 -960 365 -55 5 -126 15 -157 21 l-57 10
-10 50 c-6 27 -11 60 -11 74 0 13 -6 40 -14 59 -11 26 -22 35 -48 40 -49 8
-1309 11 -1408 3z m1347 -75 c24 -4 32 -11 37 -31 6 -33 34 -332 42 -455 6
-86 7 -89 37 -108 18 -10 41 -19 51 -19 18 0 19 7 13 180 l-7 180 28 0 c30 0
208 -24 307 -41 78 -13 323 -89 417 -129 161 -68 355 -186 506 -307 88 -71
119 -108 103 -126 -4 -4 -41 -9 -82 -12 -252 -15 -334 -28 -433 -69 -44 -18
-91 -37 -104 -40 -12 -4 -59 -28 -103 -53 -76 -43 -80 -46 -77 -76 5 -52 35
-47 182 27 249 125 487 165 659 112 45 -14 119 -34 164 -45 45 -11 125 -40
178 -66 l95 -45 0 -895 0 -894 -33 -6 c-42 -8 -303 -2 -312 6 -3 4 8 74 24
155 50 243 62 414 40 571 -15 107 -26 128 -68 128 l-33 0 -2 -290 c-2 -228 -6
-310 -20 -385 -46 -245 -172 -500 -327 -658 -172 -177 -330 -262 -594 -322
-132 -29 -151 -31 -335 -30 -196 1 -225 2 -290 13 -19 4 -53 9 -75 12 -66 9
-180 43 -241 72 -118 56 -217 180 -254 317 -8 33 -21 61 -27 63 -7 3 -20 -12
-30 -31 -15 -32 -15 -44 -4 -98 28 -135 111 -239 242 -305 115 -57 262 -102
367 -113 167 -18 541 -9 627 15 11 3 88 23 171 44 168 43 177 47 295 126 46
31 85 52 87 47 1 -5 -18 -72 -42 -148 -57 -174 -67 -218 -110 -484 -59 -367
-89 -620 -116 -1007 -11 -154 -14 -169 -37 -177 -21 -8 -2493 -16 -2894 -9
-174 3 -321 8 -327 12 -6 4 -20 106 -31 241 -23 268 -76 738 -90 802 -5 24
-21 113 -36 198 -14 85 -41 211 -61 279 -41 145 -55 251 -33 251 8 0 60 -22
114 -49 73 -36 144 -60 263 -90 201 -50 288 -61 510 -61 233 0 343 13 472 57
158 53 220 93 290 187 65 89 82 132 87 221 7 136 -25 141 -67 10 -34 -104 -63
-154 -122 -212 -66 -64 -163 -117 -248 -137 -195 -45 -673 -45 -870 0 -96 22
-274 99 -365 158 -143 93 -314 284 -391 438 -42 83 -110 320 -124 431 -5 45
-10 202 -10 349 0 157 -4 268 -9 268 -5 0 -29 -15 -53 -33 l-43 -33 -3 -154
c-4 -191 11 -367 43 -497 14 -54 25 -110 25 -125 l0 -28 -151 0 c-84 0 -159 5
-170 10 -19 10 -19 31 -19 899 0 699 3 891 13 899 31 26 226 97 365 132 125
33 170 40 247 40 87 0 217 -21 240 -39 5 -5 26 -11 45 -15 35 -6 236 -98 285
-130 35 -23 54 -20 66 10 12 33 -3 52 -69 86 -26 14 -56 30 -67 36 -11 6 -74
31 -141 56 -134 50 -239 66 -430 66 -86 0 -104 3 -104 15 0 8 5 15 10 15 6 0
10 7 10 15 0 8 3 15 8 15 4 0 28 19 53 43 154 141 423 304 609 370 80 28 243
76 310 91 58 13 258 41 383 53 l47 5 -1 -44 c0 -23 -6 -95 -13 -158 -12 -99
-12 -118 1 -138 10 -17 22 -22 41 -20 34 4 40 25 41 158 2 194 32 411 61 440
17 17 61 18 686 18 368 0 683 -2 701 -5z"/>
<path d="M5717 5379 c-33 -20 -47 -64 -47 -156 0 -107 -24 -166 -103 -258
-109 -127 -174 -175 -239 -175 -28 0 -58 -37 -58 -70 0 -35 23 -50 75 -50 20
0 48 -6 63 -14 38 -20 123 -112 167 -181 67 -104 87 -160 92 -267 l6 -96 29
-6 c24 -5 78 1 78 8 0 43 38 184 68 252 67 156 165 273 245 295 94 25 135 53
124 82 -3 7 -40 28 -83 46 -43 18 -97 46 -120 62 -63 43 -138 133 -178 213
-32 63 -37 83 -45 188 -5 64 -12 121 -15 127 -9 14 -35 14 -59 0z m94 -445
c30 -45 69 -88 96 -107 26 -18 57 -42 70 -54 l24 -21 -58 -69 c-86 -100 -107
-130 -147 -210 -20 -40 -40 -75 -45 -78 -5 -3 -36 34 -68 82 -33 49 -92 128
-131 177 -40 49 -72 95 -72 103 0 7 24 30 54 53 30 22 72 61 93 87 60 75 100
113 117 113 8 0 38 -34 67 -76z"/>
<path d="M2696 5273 c-19 -48 -2 -66 103 -112 206 -90 300 -111 496 -111 86 0
129 5 179 20 37 12 64 25 61 30 -5 8 50 44 57 39 10 -7 53 28 75 62 22 34 24
42 12 50 -29 18 -66 7 -137 -41 -106 -72 -186 -94 -316 -87 -143 8 -295 53
-483 144 -35 17 -43 18 -47 6z"/>
<path d="M4825 5239 c-38 -17 -124 -49 -190 -72 -117 -40 -123 -41 -255 -41
-154 0 -201 13 -309 85 -52 34 -67 40 -105 37 l-45 -3 62 -53 c149 -126 220
-148 452 -139 118 4 141 8 252 45 141 47 241 92 268 123 19 21 19 21 0 35 -27
20 -51 17 -130 -17z"/>
<path d="M3784 4468 c-9 -15 -5 -971 5 -1018 9 -46 41 -49 53 -5 9 33 12 1011
3 1026 -9 13 -52 11 -61 -3z"/>
<path d="M2312 3258 c-15 -15 -16 -63 -2 -89 14 -25 51 -24 84 2 33 26 33 30
-3 68 -30 32 -59 39 -79 19z"/>
<path d="M5241 3241 c-36 -34 -38 -42 -12 -65 28 -26 80 -26 96 -1 11 17 11
26 -2 58 -19 45 -40 47 -82 8z"/>
<path d="M3045 2432 c-122 -7 -275 -50 -378 -104 -79 -41 -183 -146 -224 -224
-50 -95 -63 -160 -63 -320 0 -164 8 -234 25 -234 29 0 38 34 47 179 9 164 34
280 74 348 37 64 121 143 190 180 99 53 158 64 382 70 l202 6 0 43 c0 34 -5
46 -21 54 -18 10 -101 11 -234 2z"/>
<path d="M4344 2416 c-3 -8 -4 -29 -2 -48 l3 -33 185 -6 c102 -4 206 -10 230
-14 108 -17 291 -148 339 -243 40 -78 71 -219 78 -352 6 -135 14 -170 37 -170
33 0 38 38 34 239 -5 226 -12 251 -101 379 -58 84 -99 118 -202 167 -72 34
-108 45 -208 65 -31 6 -55 16 -52 21 4 5 -62 9 -165 9 -137 0 -172 -3 -176
-14z"/>
<path d="M3788 2063 c-39 -43 -48 -66 -48 -130 0 -54 3 -62 33 -91 18 -18 38
-32 44 -32 7 0 15 19 18 43 9 63 2 230 -10 234 -6 2 -23 -9 -37 -24z"/>
<path d="M3558 1698 c-120 -74 -151 -89 -208 -104 -92 -23 -212 -7 -406 57
-140 45 -202 58 -217 43 -3 -3 -1 -17 6 -31 16 -36 133 -87 272 -118 66 -15
144 -33 172 -40 69 -18 117 -13 249 25 125 36 165 57 194 105 43 70 8 105 -62
63z"/>
<path d="M4012 1698 c-10 -13 -15 -33 -13 -56 1 -17 48 -60 85 -79 44 -23 225
-64 281 -64 28 0 79 7 116 15 36 9 95 20 131 25 122 17 244 79 272 138 24 50
20 50 -241 -41 -151 -52 -239 -64 -356 -47 -83 12 -134 33 -208 87 -53 38 -53
38 -67 22z"/>
<path d="M2539 6580 c-144 -28 -285 -70 -384 -116 -27 -12 -76 -33 -108 -45
-60 -23 -93 -61 -81 -93 9 -24 32 -20 114 20 182 88 398 150 609 175 75 9 101
21 101 44 0 44 -76 48 -251 15z"/>
<path d="M5641 6333 c-14 -28 10 -48 144 -118 153 -80 239 -142 371 -267 62
-59 120 -108 129 -108 25 0 23 56 -5 110 -39 77 -213 212 -412 320 -147 80
-208 97 -227 63z"/>
<path d="M1772 6308 c-15 -15 -16 -53 -2 -79 12 -22 57 -26 84 -6 28 20 18 71
-14 75 -14 2 -29 8 -34 13 -13 12 -20 11 -34 -3z"/>
<path d="M6377 5803 c-4 -3 -7 -26 -7 -49 0 -63 49 -93 94 -59 28 21 25 73 -5
96 -24 18 -69 25 -82 12z"/>
<path d="M1392 2282 c-7 -5 -19 -53 -27 -111 -17 -116 -50 -209 -106 -297 -57
-88 -112 -129 -258 -192 -51 -22 -92 -43 -92 -46 0 -4 54 -33 118 -65 125 -61
155 -87 219 -187 36 -57 108 -228 118 -284 15 -79 29 -120 42 -120 7 0 24 10
38 23 23 19 27 34 36 117 11 116 28 164 81 244 85 125 124 163 186 181 75 22
129 50 137 71 6 17 -18 54 -36 54 -5 0 -37 14 -72 30 -127 61 -242 178 -272
275 -8 28 -19 104 -24 169 -6 66 -13 123 -17 127 -14 13 -57 20 -71 11z m46
-394 c53 -72 126 -145 195 -197 31 -24 57 -46 57 -50 0 -4 -27 -33 -61 -66
-75 -74 -133 -148 -189 -242 -24 -40 -44 -73 -46 -73 -1 0 -10 24 -19 53 -33
99 -85 184 -159 258 l-71 71 35 26 c77 58 145 137 175 204 17 37 33 68 37 68
4 0 25 -24 46 -52z"/>
</g>
</svg>
