<?xml version="1.0" standalone="no"?>
<!DOCTYPE svg PUBLIC "-//W3C//DTD SVG 20010904//EN"
 "http://www.w3.org/TR/2001/REC-SVG-20010904/DTD/svg10.dtd">
<svg version="1.0" xmlns="http://www.w3.org/2000/svg"
 width="1024.000000pt" height="1024.000000pt" viewBox="0 0 1024.000000 1024.000000"
 preserveAspectRatio="xMidYMid meet">

<g transform="translate(0.000000,1024.000000) scale(0.100000,-0.100000)"
fill="#000000" stroke="none">
<path d="M2324 8763 c-18 -40 -44 -112 -59 -160 -14 -49 -42 -141 -61 -205
-20 -65 -53 -184 -74 -265 -21 -82 -50 -191 -64 -243 -92 -344 -154 -650 -226
-1115 -22 -141 -64 -538 -82 -780 -18 -241 -15 -781 6 -1040 27 -331 84 -884
111 -1070 23 -160 43 -308 66 -489 6 -44 26 -159 45 -255 20 -97 51 -255 70
-351 48 -253 129 -615 154 -690 11 -36 32 -114 45 -175 13 -60 39 -159 58
-220 19 -60 45 -146 57 -190 12 -44 37 -127 57 -185 19 -58 45 -141 57 -185
l22 -80 936 -3 c741 -2 937 1 945 10 20 27 100 328 153 573 12 55 28 127 35
160 41 176 56 259 135 750 5 33 21 170 35 305 14 135 30 277 35 315 19 135 56
619 70 910 32 665 40 910 41 1370 l2 510 151 2 c83 2 165 4 181 5 l30 3 6
-485 c3 -267 11 -582 18 -700 42 -804 44 -823 71 -1180 13 -171 46 -502 65
-645 8 -60 19 -150 25 -200 58 -485 145 -954 256 -1385 19 -74 45 -177 57
-228 l21 -92 843 1 c464 0 843 4 843 9 0 4 -16 16 -37 25 l-36 17 31 14 c18 7
32 18 32 24 0 9 -632 16 -1402 15 l-176 0 -31 100 c-37 124 -112 433 -141 580
-11 61 -29 146 -40 190 -10 44 -23 114 -29 155 -34 234 -53 366 -66 455 -33
220 -52 396 -70 655 -7 96 -22 245 -49 490 -24 215 -36 439 -43 816 l-6 351
109 6 c111 7 214 15 549 41 105 8 242 17 305 21 110 6 364 25 590 44 58 5 105
9 106 8 0 -1 13 -29 28 -62 42 -89 62 -151 80 -251 24 -127 36 -163 59 -170
29 -9 42 12 60 101 24 115 61 224 111 330 l43 92 99 6 c55 4 135 11 179 17
176 23 463 50 523 50 l65 0 -7 -132 c-10 -175 -24 -354 -36 -453 -6 -44 -17
-145 -25 -225 -22 -213 -63 -575 -70 -618 -4 -20 -13 -68 -20 -107 -15 -77
-40 -236 -56 -359 -10 -77 -40 -242 -59 -321 -5 -22 -16 -80 -25 -130 -26
-144 -55 -286 -71 -340 -7 -27 -28 -117 -45 -200 -17 -82 -42 -184 -55 -227
-13 -42 -36 -123 -50 -180 -38 -154 -161 -569 -184 -623 -11 -26 -20 -57 -20
-70 0 -25 51 -75 76 -75 22 0 72 132 130 345 8 28 20 68 28 90 40 113 120 420
230 885 40 170 132 642 161 825 15 94 37 238 50 320 28 175 60 410 75 545 6
52 15 127 20 165 55 405 74 768 66 1305 -6 441 -14 619 -36 808 -20 168 -71
524 -86 602 -7 41 -25 138 -39 215 -15 77 -37 185 -50 240 -13 55 -40 172 -60
260 -20 88 -43 178 -50 200 -7 22 -16 56 -20 75 -4 19 -36 134 -72 255 -35
121 -76 258 -89 305 -14 46 -38 114 -55 151 -16 37 -29 74 -29 83 0 8 -6 18
-12 23 -7 4 -1239 8 -2737 8 l-2724 0 -33 -72z m5430 -132 c8 -45 -3 -33 -14
14 -5 21 -5 34 -1 29 5 -5 11 -24 15 -43z m-5327 7 c-3 -8 -6 -5 -6 6 -1 11 2
17 5 13 3 -3 4 -12 1 -19z m-23 -65 c-25 -93 -73 -213 -74 -186 0 15 56 182
64 190 3 4 6 15 6 25 0 10 4 18 9 18 4 0 2 -21 -5 -47z m5384 -43 c11 -33 18
-62 14 -64 -4 -2 -19 6 -34 19 -18 15 -23 26 -17 36 5 8 9 26 9 42 0 15 2 27
4 27 2 0 13 -27 24 -60z m-4581 -122 c-3 -8 -6 -5 -6 6 -1 11 2 17 5 13 3 -3
4 -12 1 -19z m-881 -73 c-6 -28 -4 -35 9 -35 8 0 15 -4 15 -10 0 -5 -9 -10
-20 -10 -13 0 -21 -9 -25 -27 -3 -16 -12 -41 -19 -58 -8 -16 -19 -46 -25 -65
l-10 -35 5 35 c3 19 12 55 20 80 7 25 21 71 29 103 18 63 31 77 21 22z m861
-67 c-3 -7 -5 -2 -5 12 0 14 2 19 5 13 2 -7 2 -19 0 -25z m4713 -86 c24 -87
24 -98 2 -52 -9 19 -27 40 -40 46 -33 16 -41 28 -14 19 21 -6 24 -4 22 22 -5
68 5 57 30 -35z m-4733 -4 c-3 -8 -6 -5 -6 6 -1 11 2 17 5 13 3 -3 4 -12 1
-19z m193 -34 c0 -8 -4 -12 -10 -9 -5 3 -10 13 -10 21 0 8 5 12 10 9 6 -3 10
-13 10 -21z m-220 -104 c0 -5 -4 -10 -10 -10 -5 0 -10 5 -10 10 0 6 5 10 10
10 6 0 10 -4 10 -10z m-23 -42 c-3 -8 -6 -5 -6 6 -1 11 2 17 5 13 3 -3 4 -12
1 -19z m161 -45 c27 -143 119 -283 265 -400 40 -32 83 -65 97 -74 l24 -16 -59
-38 c-78 -50 -179 -152 -238 -241 -36 -55 -52 -94 -73 -175 -15 -57 -30 -108
-34 -112 -4 -4 -10 14 -13 40 -9 74 -30 126 -99 240 -87 144 -202 254 -303
288 -17 6 -12 11 32 33 165 86 305 258 354 438 13 46 26 84 29 84 3 0 11 -30
18 -67z m109 35 c-3 -7 -5 -2 -5 12 0 14 2 19 5 13 2 -7 2 -19 0 -25z m-1170
-30 c-3 -7 -5 -2 -5 12 0 14 2 19 5 13 2 -7 2 -19 0 -25z m1190 -20 c-3 -8 -6
-5 -6 6 -1 11 2 17 5 13 3 -3 4 -12 1 -19z m4580 -68 c15 -54 16 -73 4 -66 -5
3 -12 30 -16 61 -3 30 -11 57 -16 60 -5 4 -9 12 -9 18 1 21 24 -26 37 -73z
m-4917 -10 c0 -5 -2 -10 -4 -10 -3 0 -8 5 -11 10 -3 6 -1 10 4 10 6 0 11 -4
11 -10z m-880 -30 c0 -5 -5 -10 -11 -10 -5 0 -7 5 -4 10 3 6 8 10 11 10 2 0 4
-4 4 -10z m5817 -82 c-3 -7 -5 -2 -5 12 0 14 2 19 5 13 2 -7 2 -19 0 -25z
m-5019 -2 c-7 -8 -15 -12 -17 -11 -5 6 10 25 20 25 5 0 4 -6 -3 -14z m-33 -36
c-3 -5 -12 -10 -18 -10 -7 0 -6 4 3 10 19 12 23 12 15 0z m-808 -42 c-3 -8 -6
-5 -6 6 -1 11 2 17 5 13 3 -3 4 -12 1 -19z m773 7 c-7 -9 -15 -13 -17 -11 -7
7 7 26 19 26 6 0 6 -6 -2 -15z m-41 -31 c-11 -14 -120 -74 -134 -74 -3 0 -5 4
-5 9 0 4 29 21 65 37 36 16 65 32 65 37 0 4 5 7 11 7 8 0 7 -5 -2 -16z m-152
-80 c-3 -3 -12 -4 -19 -1 -8 3 -5 6 6 6 11 1 17 -2 13 -5z m-64 -21 c-7 -2
-21 -2 -30 0 -10 3 -4 5 12 5 17 0 24 -2 18 -5z m5419 -62 c2 -17 1 -28 -4
-25 -8 5 -12 54 -4 54 2 0 6 -13 8 -29z m-5982 -13 c0 -16 -3 -19 -11 -11 -6
6 -8 16 -5 22 11 17 16 13 16 -11z m0 -32 c0 -3 -4 -8 -10 -11 -5 -3 -10 -1
-10 4 0 6 5 11 10 11 6 0 10 -2 10 -4z m6003 -56 c4 -36 3 -48 -3 -35 -8 19
-14 103 -6 94 2 -2 6 -29 9 -59z m-6026 -2 c-3 -7 -5 -2 -5 12 0 14 2 19 5 13
2 -7 2 -19 0 -25z m1641 -33 c-15 -14 -30 -25 -34 -25 -10 0 -63 -47 -59 -52
2 -2 -10 -12 -28 -22 -18 -9 -58 -49 -89 -87 -65 -78 -79 -79 -20 -1 45 60
104 113 185 169 71 49 83 53 45 18z m-1661 -47 c-3 -7 -5 -2 -5 12 0 14 2 19
5 13 2 -7 2 -19 0 -25z m6060 -25 c-3 -10 -5 -2 -5 17 0 19 2 27 5 18 2 -10 2
-26 0 -35z m-5017 -259 c11 -26 20 -54 20 -63 -1 -12 -50 92 -50 106 0 14 12
-4 30 -43z m5067 -6 c-3 -8 -6 -5 -6 6 -1 11 2 17 5 13 3 -3 4 -12 1 -19z m20
-80 c-3 -8 -6 -5 -6 6 -1 11 2 17 5 13 3 -3 4 -12 1 -19z m-5047 -8 c0 -5 -2
-10 -4 -10 -3 0 -8 5 -11 10 -3 6 -1 10 4 10 6 0 11 -4 11 -10z m24 -89 c8
-27 20 -84 25 -127 5 -44 14 -92 20 -107 9 -23 8 -28 -1 -25 -7 3 -15 13 -17
24 -4 21 -34 54 -51 54 -14 0 -13 57 1 62 9 3 9 9 0 25 -6 12 -11 35 -11 51 0
30 10 92 15 92 2 0 10 -22 19 -49z m-1207 -203 c-3 -8 -6 -5 -6 6 -1 11 2 17
5 13 3 -3 4 -12 1 -19z m1306 -75 c-7 -2 -21 -2 -30 0 -10 3 -4 5 12 5 17 0
24 -2 18 -5z m34 -59 c-3 -3 -12 -4 -19 -1 -8 3 -5 6 6 6 11 1 17 -2 13 -5z
m-1360 -46 c-3 -7 -5 -2 -5 12 0 14 2 19 5 13 2 -7 2 -19 0 -25z m-20 -220
c-2 -13 -4 -5 -4 17 -1 22 1 32 4 23 2 -10 2 -28 0 -40z m5410 -10 c-3 -7 -5
-2 -5 12 0 14 2 19 5 13 2 -7 2 -19 0 -25z m-5425 -153 l-9 -70 -2 66 c0 37 2
82 6 100 l8 34 3 -30 c1 -16 -1 -61 -6 -100z m5466 48 c6 -15 12 -34 12 -42 1
-15 23 -83 48 -144 19 -46 13 -55 -8 -13 -36 71 -85 226 -72 226 4 0 13 -12
20 -27z m-231 -15 c-3 -7 -5 -2 -5 12 0 14 2 19 5 13 2 -7 2 -19 0 -25z m-22
-67 c-4 -17 -11 -31 -17 -31 -6 0 -7 8 -3 18 4 9 10 25 12 35 9 29 15 11 8
-22z m158 -48 c3 -27 26 -88 55 -147 40 -80 66 -116 125 -176 41 -41 104 -93
141 -114 36 -21 66 -42 66 -45 0 -4 -19 -12 -43 -19 -43 -13 -167 -112 -219
-177 -56 -68 -131 -244 -145 -343 -6 -40 -21 -51 -27 -20 -2 13 -9 49 -14 81
-15 78 -99 223 -182 311 -69 73 -205 170 -227 162 -7 -3 -13 -4 -13 -1 0 2 34
20 76 40 113 54 243 187 306 311 25 50 52 117 59 147 15 68 33 63 42 -10z
m-5383 -338 c0 -223 -4 -345 -10 -345 -6 0 -10 91 -10 253 0 232 8 437 16 437
2 0 4 -155 4 -345z m5575 215 c3 -5 1 -10 -4 -10 -6 0 -11 5 -11 10 0 6 2 10
4 10 3 0 8 -4 11 -10z m-455 -49 c-6 -12 -15 -21 -21 -21 -10 0 -5 13 14 38
15 19 20 7 7 -17z m489 -16 c0 -5 -6 -1 -14 9 -8 11 -15 24 -15 30 0 5 7 1 15
-10 8 -10 14 -23 14 -29z m-564 -75 c-3 -5 -12 -10 -18 -10 -7 0 -6 4 3 10 19
12 23 12 15 0z m-675 -30 c0 -5 -4 -10 -10 -10 -5 0 -10 5 -10 10 0 6 5 10 10
10 6 0 10 -4 10 -10z m-846 -156 c3 -60 6 -189 7 -286 1 -126 4 -178 13 -178
12 0 -14 -20 -26 -20 -4 0 -8 136 -8 302 0 166 2 299 5 297 2 -3 7 -54 9 -115z
m1358 80 c-12 -8 -28 -13 -35 -11 -7 3 -5 6 6 6 9 1 17 6 17 11 0 6 8 10 17
10 14 0 13 -3 -5 -16z m-87 -34 c-3 -5 -16 -10 -28 -9 -20 1 -20 2 3 9 14 4
26 8 28 9 2 1 0 -3 -3 -9z m-72 -27 c-7 -2 -19 -2 -25 0 -7 3 -2 5 12 5 14 0
19 -2 13 -5z m1310 -280 c-18 -2 -48 -2 -65 0 -18 2 -4 4 32 4 36 0 50 -2 33
-4z m-5943 -83 c361 -48 455 -58 825 -81 212 -13 499 -37 585 -49 84 -12 251
-26 520 -45 118 -9 337 -27 485 -40 149 -14 290 -26 315 -27 l45 -3 -1 -245
c-1 -135 -7 -324 -13 -420 -6 -96 -16 -269 -21 -385 -15 -315 -67 -885 -110
-1225 -17 -133 -71 -455 -125 -750 -28 -156 -115 -511 -165 -683 l-23 -78
-843 3 -843 3 -41 105 c-40 103 -73 209 -165 535 -25 88 -54 189 -65 225 -47
160 -230 1007 -260 1210 -5 30 -22 143 -38 250 -17 107 -35 238 -42 290 -6 52
-22 178 -35 280 -14 102 -30 219 -35 260 -16 118 -38 406 -50 627 -14 281 -15
267 13 259 12 -4 51 -11 87 -16z m5019 -4 c26 -17 4 -21 -111 -22 l-121 -1 34
18 c26 14 51 17 110 15 42 -2 82 -6 88 -10z m-3771 -3 c-16 -2 -40 -2 -55 0
-16 2 -3 4 27 4 30 0 43 -2 28 -4z m285 -20 c-7 -2 -21 -2 -30 0 -10 3 -4 5
12 5 17 0 24 -2 18 -5z"/>
<path d="M1336 6219 c-5 -26 -21 -198 -36 -402 -23 -297 -7 -913 31 -1235 l12
-103 61 3 c69 3 66 -3 48 108 -44 260 -65 815 -43 1135 29 412 32 488 23 497
-5 5 -28 12 -50 15 -37 5 -41 3 -46 -18z"/>
<path d="M8750 6060 l0 -80 60 0 c69 0 73 6 68 101 l-3 54 -62 3 -63 3 0 -81z"/>
<path d="M8747 5373 c-7 -478 -15 -555 -123 -1183 -13 -80 -24 -151 -24 -158
0 -9 13 -12 43 -10 37 3 44 7 60 39 18 37 51 175 67 282 66 439 90 752 90
1161 l0 246 -54 0 -53 0 -6 -377z"/>
<path d="M1364 4247 c-2 -7 -1 -42 3 -78 l8 -64 52 -3 c64 -4 75 12 71 96 l-3
57 -63 3 c-46 2 -64 -1 -68 -11z"/>
<path d="M1360 3254 c-13 -32 -6 -44 27 -44 14 0 39 -6 56 -14 18 -8 70 -24
117 -36 47 -12 99 -26 115 -31 24 -7 32 -6 42 8 15 19 2 32 -32 33 -11 0 -51
12 -90 26 -38 14 -94 30 -124 35 -35 6 -60 17 -68 29 -19 27 -32 25 -43 -6z"/>
<path d="M8620 3215 c-85 -29 -167 -56 -182 -59 -16 -4 -28 -13 -28 -21 0 -20
16 -27 37 -16 10 5 54 17 98 27 44 9 94 25 111 34 16 9 48 20 70 24 21 4 46 9
54 12 19 5 25 55 7 53 -6 -1 -82 -25 -167 -54z"/>
<path d="M1134 2766 c-14 -37 -4 -38 271 -36 197 1 271 4 277 13 4 6 3 16 -1
20 -5 5 -129 11 -275 13 -230 4 -267 2 -272 -10z"/>
<path d="M8482 2762 c-2 -7 0 -18 5 -23 13 -13 554 -12 567 1 24 24 -23 29
-288 32 -223 2 -280 0 -284 -10z"/>
<path d="M1667 2339 c-10 -6 -39 -14 -65 -19 -113 -21 -158 -32 -169 -42 -7
-5 -27 -11 -45 -12 -18 -2 -39 -4 -46 -5 -10 -1 -9 -8 4 -32 l16 -31 24 23
c14 13 44 25 72 30 26 3 81 16 122 28 41 12 86 24 100 28 32 7 51 23 44 34 -7
12 -35 11 -57 -2z"/>
<path d="M8427 2334 c-11 -12 14 -34 39 -34 13 0 43 -6 66 -14 24 -7 86 -21
138 -31 52 -10 103 -22 112 -27 13 -6 20 -3 28 11 17 32 12 41 -22 39 -18 -1
-71 8 -118 20 -47 11 -107 23 -135 27 -27 3 -61 8 -75 11 -14 2 -29 2 -33 -2z"/>
<path d="M8307 1933 c-16 -16 -4 -45 26 -63 17 -11 55 -34 82 -51 284 -177
340 -206 360 -189 24 20 18 30 -27 51 -24 11 -54 28 -68 38 -14 10 -70 45
-125 77 -55 32 -130 77 -168 101 -74 47 -71 46 -80 36z"/>
<path d="M1805 1903 c-28 -14 -122 -67 -210 -116 -88 -50 -172 -96 -187 -104
-32 -16 -33 -22 -15 -48 13 -17 17 -16 73 22 32 22 97 59 144 83 47 23 105 57
130 74 25 17 65 42 90 55 56 29 52 25 44 45 -8 21 -10 21 -69 -11z"/>
<path d="M2018 1521 c-46 -43 -111 -102 -145 -131 -66 -54 -73 -69 -47 -90 12
-11 18 -10 32 3 15 16 15 17 -1 17 -22 0 -22 19 0 27 10 4 19 1 21 -6 3 -8 18
1 43 25 32 31 36 40 26 52 -10 13 -8 14 13 9 23 -6 36 4 99 68 47 49 71 80 67
90 -3 8 -10 15 -16 15 -5 0 -47 -36 -92 -79z"/>
<path d="M8046 1563 c-5 -12 9 -31 47 -67 165 -157 229 -217 232 -214 7 9 25
48 25 56 0 5 -24 25 -52 45 -29 20 -90 73 -136 117 -85 82 -105 93 -116 63z"/>
<path d="M7621 1077 c-6 -8 -8 -16 -5 -20 10 -9 34 4 34 19 0 18 -14 18 -29 1z"/>
<path d="M5047 36 c-99 -27 -80 -36 77 -36 85 0 145 4 142 9 -10 15 -97 41
-135 40 -20 0 -58 -6 -84 -13z"/>
</g>
</svg>
