<?xml version="1.0" standalone="no"?>
<!DOCTYPE svg PUBLIC "-//W3C//DTD SVG 20010904//EN"
 "http://www.w3.org/TR/2001/REC-SVG-20010904/DTD/svg10.dtd">
<svg version="1.0" xmlns="http://www.w3.org/2000/svg"
 width="1024.000000pt" height="1024.000000pt" viewBox="0 0 1024.000000 1024.000000"
 preserveAspectRatio="xMidYMid meet">

<g transform="translate(0.000000,1024.000000) scale(0.100000,-0.100000)"
fill="#000000" stroke="none">
<path d="M1035 8900 c-3 -5 -1 -10 4 -10 6 0 11 5 11 10 0 6 -2 10 -4 10 -3 0
-8 -4 -11 -10z"/>
<path d="M1804 8386 c-18 -8 -35 -20 -39 -27 -5 -7 2 -5 16 4 13 9 34 17 46
17 13 0 23 5 23 10 0 13 -8 12 -46 -4z"/>
<path d="M9165 7660 c-3 -5 -2 -10 4 -10 5 0 13 5 16 10 3 6 2 10 -4 10 -5 0
-13 -4 -16 -10z"/>
<path d="M1971 7644 c0 -11 3 -14 6 -6 3 7 2 16 -1 19 -3 4 -6 -2 -5 -13z"/>
<path d="M4130 7299 l0 -61 -64 3 c-36 2 -68 0 -72 -4 -4 -4 -6 -34 -5 -67 l2
-60 -80 0 -81 0 -1 38 c-1 38 -3 37 -13 -10 -8 -34 -35 -37 -38 -5 -1 12 -2
30 -3 39 -2 43 -15 26 -15 -20 l0 -52 -84 0 c-62 0 -87 -4 -96 -15 -9 -11 -17
-12 -30 -5 -10 6 -37 10 -60 10 l-42 0 7 -66 7 -65 -63 0 c-35 0 -101 -2 -146
-5 l-83 -6 0 -59 0 -59 -54 0 -53 0 5 49 c2 30 0 51 -7 55 -8 5 -11 -9 -11
-46 0 -29 -4 -58 -8 -65 -4 -6 -39 -13 -77 -15 l-70 -3 -3 -63 -3 -64 -57 4
-57 3 -1 -60 -1 -60 -146 -9 -147 -9 0 -58 0 -59 -54 0 c-30 0 -58 -5 -61 -11
-4 -5 -39 -10 -78 -10 -40 0 -102 -3 -139 -6 l-67 -5 -3 -56 -3 -57 -53 3
c-29 2 -58 -1 -65 -7 -7 -5 -42 -11 -77 -13 l-65 -3 2 -58 2 -58 -65 2 c-55 2
-68 -1 -76 -15 -8 -15 -21 -17 -77 -14 l-66 3 0 -60 c0 -33 -4 -66 -8 -72 -5
-8 -32 -13 -73 -13 l-64 0 0 -45 c0 -25 5 -45 10 -45 6 0 10 12 10 26 0 15 4
23 11 18 6 -3 9 -15 6 -25 -3 -11 -1 -19 5 -19 5 0 6 -5 3 -10 -4 -6 -15 -8
-25 -5 -22 7 -30 -18 -30 -98 l0 -58 -64 7 -64 7 -1 -624 c-1 -343 -5 -627 -9
-631 -4 -4 -36 -8 -71 -10 l-65 -3 0 -85 -1 -85 290 -7 c160 -4 374 -8 477
-10 l187 -3 3 25 c3 23 8 25 61 28 33 2 65 -2 72 -8 10 -8 15 -6 20 9 6 18 15
21 71 21 l64 0 -2 53 c-1 50 -2 50 -5 10 l-4 -43 -60 0 -59 0 0 51 0 52 65 -5
c35 -3 67 -3 70 1 8 7 241 2 268 -5 9 -3 15 -10 11 -15 -3 -6 -3 -33 1 -60 l7
-50 62 2 61 3 3 -33 c2 -18 9 -34 15 -37 7 -2 98 -1 202 3 l190 8 -3 30 c-2
17 -5 30 -5 31 -1 0 -22 -1 -46 -4 -32 -3 -45 -9 -48 -23 -3 -11 -12 -19 -19
-19 -11 0 -14 18 -14 73 0 73 -16 246 -23 253 -2 2 -25 7 -50 10 -55 8 -66
-10 -12 -20 30 -6 33 -9 23 -25 -16 -26 -2 -91 20 -92 30 -1 -19 -18 -55 -18
l-33 -1 0 261 0 261 55 -4 c45 -2 55 0 55 13 0 12 -9 14 -55 9 l-55 -6 0 74 0
73 57 -2 c68 -3 61 -18 71 151 l7 125 68 3 67 3 0 59 c0 86 2 89 65 83 79 -8
82 -6 75 71 -3 37 -3 71 0 76 4 6 20 6 40 1 19 -5 49 -11 66 -15 l32 -5 6 77
c4 42 6 101 6 130 l-1 52 60 0 c69 0 69 0 73 99 l3 54 50 0 c74 0 75 0 75 79
l0 71 53 -7 c28 -4 85 -10 125 -13 l73 -6 -2 -53 c-2 -30 0 -56 3 -59 3 -4 43
-9 89 -13 l84 -7 3 -57 3 -58 47 1 c47 1 47 1 17 12 -25 10 -30 18 -33 50 l-3
37 40 0 40 0 6 -54 7 -53 61 -8 c34 -4 93 -11 131 -14 l69 -6 0 -37 c-2 -59
-2 -60 -18 -54 -8 3 -15 2 -15 -3 0 -11 50 -21 104 -21 82 0 88 -6 84 -69 l-3
-56 48 -3 c37 -2 47 0 47 12 0 9 -4 16 -8 16 -4 0 -9 12 -10 26 -1 15 -7 33
-13 40 -9 11 -6 14 15 14 25 0 26 -2 26 -54 0 -52 1 -54 31 -60 17 -3 51 -6
75 -6 25 0 44 -5 44 -11 0 -7 -21 -10 -57 -7 l-58 3 -3 -52 -3 -53 38 -2 c21
-1 49 -2 63 -2 l25 -1 2 -654 c2 -360 4 -655 6 -657 1 -2 66 -6 144 -10 l141
-7 6 184 c4 101 5 272 4 379 l-3 195 51 3 50 3 2 84 1 85 -55 0 -54 0 0 120 0
120 53 -3 c40 -1 52 2 52 13 0 15 -43 17 -87 4 -16 -5 -18 3 -18 62 l0 66 55
-4 c35 -3 55 -1 56 6 0 6 0 39 -1 74 -1 45 2 62 12 63 7 0 38 1 68 2 l55 2 3
67 3 67 72 3 72 3 3 58 3 57 49 0 50 0 0 -38 c0 -38 0 -38 -42 -41 -76 -4 -66
-21 13 -24 l54 -2 5 55 5 55 139 10 140 10 -3 62 -2 61 68 5 c37 3 99 7 138 9
l70 3 -4 40 c-10 96 -14 90 59 88 l65 -1 3 -58 c2 -32 9 -62 15 -66 7 -4 40
-8 75 -8 l62 0 0 -75 0 -75 65 0 64 0 -2 -67 -2 -68 68 -3 68 -3 -2 -53 c-1
-29 1 -58 5 -64 4 -7 30 -12 62 -12 50 0 54 -2 53 -22 -1 -17 -2 -19 -6 -5 -3
13 -15 17 -47 17 -23 0 -45 -2 -47 -5 -3 -2 -3 -26 1 -52 l5 -48 50 -3 c28 -2
56 -8 63 -14 7 -6 12 -34 12 -68 l0 -57 63 -9 62 -9 3 -67 3 -68 59 0 60 0 0
-60 c0 -57 -1 -60 -19 -50 -14 7 -22 7 -27 -1 -3 -6 -19 -9 -35 -5 -22 4 -29
2 -29 -9 0 -11 13 -15 54 -15 32 0 58 -5 62 -12 8 -13 7 -648 -1 -656 -3 -3
-5 -37 -5 -75 0 -59 -2 -68 -16 -63 -9 3 -31 6 -49 6 -31 0 -33 2 -37 43 -6
59 -2 66 50 70 45 3 45 3 -10 5 l-58 2 0 -114 c0 -95 3 -115 16 -120 9 -3 74
-6 144 -6 l129 0 3 52 3 52 59 -3 c70 -3 76 3 76 82 l0 57 168 -1 c179 0 206
-5 208 -35 0 -10 1 -36 2 -56 l2 -38 53 0 c90 0 97 -5 97 -64 l0 -51 542 3
c299 2 544 5 546 7 2 2 0 24 -3 49 l-7 45 -57 3 -56 3 -9 133 -9 132 -46 -1
c-44 -2 -45 -2 -11 -8 34 -6 35 -8 40 -59 3 -29 4 -55 1 -58 -2 -2 -24 -4 -48
-4 l-43 0 0 528 c0 561 -12 832 -38 832 -8 0 -11 -7 -8 -17 3 -10 6 -34 8 -53
l3 -35 -55 0 -55 0 -1 71 c-1 39 -5 97 -8 128 l-7 56 -70 0 -69 0 0 64 c0 71
-5 76 -86 76 -49 0 -54 8 -54 87 l0 55 -55 -6 c-30 -3 -57 -1 -60 4 -3 6 -37
10 -76 10 l-69 0 0 61 0 60 -47 -7 c-60 -8 -67 -14 -20 -14 36 0 37 -1 37 -40
l0 -40 -40 0 c-22 0 -43 -1 -47 -2 -4 -2 -8 17 -8 42 0 66 -7 71 -83 70 -37
-1 -98 2 -137 7 l-70 8 -3 58 c-3 52 -5 57 -27 57 -41 0 -55 -11 -55 -42 0
-16 5 -38 10 -49 9 -16 7 -19 -10 -19 -15 0 -20 7 -20 29 0 16 -3 42 -6 59 -6
31 -7 31 -78 34 l-71 3 -8 53 -9 52 -63 0 c-46 0 -64 4 -68 15 -4 10 -26 15
-74 17 l-68 3 0 58 c0 32 -4 58 -10 58 -5 1 -35 0 -66 -1 -31 -1 -60 3 -63 8
-3 6 -7 35 -7 65 l-2 54 -71 8 c-39 3 -98 10 -131 13 l-60 7 -3 58 c-2 31 -7
57 -12 57 -12 0 -13 -10 -11 -67 l2 -43 -51 0 -50 0 0 59 0 59 -77 5 c-43 3
-104 6 -136 6 -31 0 -63 3 -70 8 -6 4 -38 6 -69 4 -64 -3 -65 -2 -70 83 l-3
40 -63 -3 c-79 -3 -92 7 -92 70 0 35 -4 49 -14 49 -10 0 -12 -12 -8 -50 l5
-50 -47 0 -46 0 0 50 0 50 -55 2 c-30 0 -60 1 -67 2 -8 1 -11 -17 -9 -56 l2
-56 -68 -4 c-37 -2 -70 -2 -73 0 -3 2 -7 29 -10 60 l-5 57 -72 3 -73 3 0 -56
0 -55 -56 0 -55 0 3 43 c3 41 4 42 43 48 l40 6 -42 2 c-24 0 -46 2 -50 4 -8 3
-11 -52 -11 -303 -1 -107 -4 -234 -8 -282 l-7 -88 -63 0 -63 0 -3 -62 -3 -63
-62 -3 c-35 -2 -63 -7 -63 -12 0 -5 26 -8 58 -7 l57 2 3 -52 c2 -29 -1 -53 -5
-53 -4 -1 -57 -6 -118 -13 -60 -7 -142 -11 -182 -9 l-72 4 -7 66 c-3 37 -12
70 -18 74 -6 4 -31 8 -56 8 -26 0 -51 5 -58 12 -7 7 -12 36 -12 65 l0 52 -62
3 -63 3 -1 262 c-1 144 -5 270 -9 280 -5 10 -11 41 -14 68 l-6 50 -118 3 -118
3 2 -58 3 -58 -75 0 -74 0 -3 58 -3 57 -74 0 -75 0 0 -61z m420 -4 l0 -45 -40
0 -40 0 4 37 c5 40 13 48 50 51 24 2 26 -1 26 -43z m100 0 c0 -24 -5 -35 -15
-35 -17 0 -20 16 -4 25 7 5 4 14 -7 26 -16 18 -16 19 4 19 18 0 22 -6 22 -35z
m1043 18 c-24 -9 -13 -23 17 -23 22 0 30 5 31 18 0 14 2 14 9 -3 20 -46 13
-55 -40 -55 -48 0 -50 1 -50 28 0 33 7 42 29 41 10 0 12 -2 4 -6z m341 -55
c-3 -4 -11 -5 -20 -1 -11 4 -12 8 -3 20 10 11 14 11 20 1 4 -6 6 -15 3 -20z
m-1614 -93 l0 -55 -65 0 -65 0 0 55 0 55 65 0 65 0 0 -55z m1500 5 l0 -48 -57
-4 c-66 -6 -73 -1 -73 58 l0 42 65 0 65 1 0 -49z m292 10 c0 -22 1 -45 2 -52
1 -6 -4 -13 -10 -15 -6 -2 -11 17 -12 52 -1 30 3 55 8 55 6 0 11 -18 12 -40z
m-1872 -100 c0 -5 -10 -10 -22 -10 -14 0 -18 -3 -11 -8 8 -5 8 -19 -2 -57
l-14 -50 0 68 c-1 65 0 67 24 67 14 0 25 -4 25 -10z m1580 -3 c0 -4 0 -22 0
-41 0 -34 0 -35 -37 -29 -21 3 -41 11 -45 17 -5 8 -8 7 -8 -1 0 -7 -7 -13 -15
-13 -11 0 -15 11 -15 39 l0 38 60 -1 c33 -1 60 -5 60 -9z m6 -111 c2 -6 0 -38
-5 -71 -8 -55 -9 -57 -10 -17 -1 29 -5 42 -16 44 -8 0 -20 1 -27 2 -7 1 -12
-12 -13 -29 0 -22 -4 -30 -17 -29 -11 1 -18 -5 -18 -15 0 -14 -2 -14 -10 -1
-5 8 -10 41 -10 72 l0 58 61 -2 c34 -1 63 -6 65 -12z m-1508 -80 c2 -27 0 -56
-4 -65 -3 -9 -7 -36 -8 -61 l-1 -45 -60 -5 -60 -5 57 -7 c32 -3 62 -9 68 -13
5 -3 10 -35 10 -71 0 -59 -2 -64 -22 -65 l-23 -2 23 -4 c20 -4 22 -10 22 -67
l0 -63 61 -9 61 -9 4 -52 4 -53 -65 0 -65 0 -1 48 c-1 26 -2 53 -3 61 -1 10
-18 14 -66 15 l-65 1 -3 53 c-2 28 -8 52 -13 52 -6 0 -9 -20 -8 -47 l3 -47
-62 -1 -62 -1 0 36 c0 19 -3 44 -6 56 -5 20 -3 21 70 16 67 -4 76 -3 76 12 0
15 -10 17 -75 15 -41 -1 -78 1 -82 4 -3 4 -64 7 -135 7 l-128 0 3 118 c3 101
6 117 20 116 10 0 33 -1 53 -2 31 -2 34 -5 29 -22 -4 -11 -3 -35 1 -53 7 -32
7 -32 15 -7 4 14 7 40 8 59 1 26 4 32 17 27 9 -3 74 -3 145 1 l129 6 0 62 c0
34 2 64 4 66 3 2 33 2 68 -1 l63 -5 3 -49z m1644 1 l-4 -43 -54 -2 c-50 -2
-54 -1 -54 20 0 13 -3 33 -6 46 -6 21 -4 22 57 22 l64 0 -3 -43z m989 36 c5
-79 4 -93 -8 -93 -9 0 -13 15 -13 50 0 28 5 50 10 50 6 0 10 -3 11 -7z m-2805
-18 c-11 -8 -32 -15 -47 -15 -32 0 -48 -17 -25 -26 28 -11 17 -24 -19 -24 -30
0 -35 3 -35 24 0 13 -3 31 -6 40 -5 14 5 16 72 16 72 -1 77 -2 60 -15z m1829
-93 c6 -4 10 -32 10 -62 l0 -55 44 0 c42 0 44 1 46 30 2 37 -20 65 -52 65 -12
0 -23 5 -23 10 0 6 26 10 59 10 l59 0 -2 -60 -2 -60 48 0 48 0 0 -64 0 -64
-122 -7 -123 -7 -1 -62 -1 -61 -67 -3 -66 -3 -2 53 -1 53 -6 -55 -6 -55 -62
-3 -63 -3 0 66 0 67 70 -4 70 -3 -2 122 c-2 67 -5 123 -8 126 -3 2 -22 2 -42
-1 -35 -4 -38 -7 -38 -37 0 -31 3 -34 33 -38 25 -3 22 -4 -14 -5 -53 -2 -59 5
-59 70 l0 39 60 -2 c33 -1 63 1 67 4 9 9 135 9 148 -1z m-2231 -70 l1 -52 -62
0 -62 0 -6 38 c-4 20 -9 45 -11 54 -4 14 4 17 53 20 79 4 85 0 87 -60z m2702
51 l181 -6 1 -48 1 -49 -40 0 c-36 0 -39 2 -39 29 0 16 -3 37 -6 46 -10 24
-24 -1 -24 -42 0 -37 -4 -38 -84 -27 -46 7 -46 7 -46 45 0 53 -18 50 -22 -3
l-3 -43 -60 0 c-33 0 -75 4 -92 9 -27 8 -33 14 -33 37 0 15 -7 34 -15 43 -25
24 -18 28 43 22 31 -4 138 -9 238 -13z m-2996 -12 c-32 -6 -35 -9 -38 -43 -2
-25 -8 -38 -18 -38 -10 0 -14 13 -14 48 l0 47 52 -4 c49 -4 50 -5 18 -10z
m138 -38 l3 -53 -45 0 -46 0 0 48 c0 27 3 52 7 56 4 4 23 6 43 4 35 -3 35 -3
38 -55z m3132 27 c22 -7 21 -8 -12 -9 -21 -1 -38 4 -38 9 0 11 14 11 50 0z
m-2113 -177 c-2 -16 -4 -3 -4 27 0 30 2 43 4 28 2 -16 2 -40 0 -55z m783 22
c0 -48 -7 -52 -57 -39 -19 5 -23 13 -23 43 0 36 1 37 40 39 l40 3 0 -46z m244
-225 l43 0 -5 -52 c-2 -29 -5 -53 -6 -54 0 -1 -26 -4 -58 -8 l-56 -6 -4 56
c-3 57 6 78 30 69 8 -3 33 -5 56 -5z m173 -24 c-5 -12 -10 -13 -31 -3 l-26 12
28 6 c32 6 36 4 29 -15z m1071 17 c-15 -2 -42 -2 -60 0 -18 2 -6 4 27 4 33 0
48 -2 33 -4z m-4123 -13 c-3 -5 -17 -10 -31 -10 -20 0 -24 -5 -24 -32 0 -40
-6 -34 -13 15 l-6 37 40 0 c24 0 38 -4 34 -10z m68 3 c-7 -2 -19 -2 -25 0 -7
3 -2 5 12 5 14 0 19 -2 13 -5z m1744 -43 c1 -27 -2 -52 -7 -55 -6 -4 -10 -2
-10 4 0 5 -18 12 -40 16 -39 7 -40 8 -40 46 l0 39 48 0 47 0 2 -50z m463 46
c0 -3 -4 -8 -10 -11 -5 -3 -10 -1 -10 4 0 6 5 11 10 11 6 0 10 -2 10 -4z m448
-3 c-10 -2 -28 -2 -40 0 -13 2 -5 4 17 4 22 1 32 -1 23 -4z m1659 0 c-20 -2
-52 -2 -70 0 -17 2 0 4 38 4 39 0 53 -2 32 -4z m183 -1 c0 -5 -29 -9 -65 -10
-36 0 -65 4 -65 9 0 5 29 9 65 9 36 0 65 -4 65 -8z m-2298 -74 c-9 -9 -12 -7
-12 12 0 19 3 21 12 12 9 -9 9 -15 0 -24z m-1942 -30 c0 -10 2 -10 8 0 12 19
135 4 128 -15 -4 -8 -6 -37 -6 -64 l0 -49 -65 0 -65 0 0 -69 c0 -79 -2 -81
-85 -81 l-53 0 -5 -67 c-3 -38 -7 -93 -9 -123 l-3 -55 -55 0 c-52 0 -55 1 -52
24 6 40 32 71 61 72 26 1 25 2 -4 9 -70 18 -75 15 -75 -43 0 -30 -3 -57 -7
-60 -3 -4 -5 -41 -4 -82 l2 -75 -65 0 -66 0 0 -69 c0 -79 -7 -85 -83 -79 l-42
3 0 -60 0 -60 -40 -6 -40 -6 36 -2 c43 -1 46 -8 41 -83 l-4 -58 -59 0 c-32 0
-59 -4 -59 -8 0 -5 21 -7 48 -6 26 2 53 0 60 -4 9 -6 12 -55 13 -186 1 -98 -1
-179 -3 -180 -1 -1 -32 0 -68 3 l-65 6 -2 40 c-5 68 0 66 -140 63 l-128 -3 -5
-55 -5 -55 -70 -5 -70 -5 -5 -75 -5 -75 -71 3 -71 4 1 -69 1 -68 -43 -3 c-38
-3 -44 0 -50 20 l-6 23 -6 -25 c-5 -22 -12 -26 -65 -31 l-60 -6 53 -1 52 -2 0
-56 0 -57 -41 7 c-26 4 -46 2 -55 -5 -8 -6 -14 -10 -14 -8 -1 62 -14 272 -19
289 0 3 -28 3 -61 2 l-60 -4 -1 64 c-1 34 -3 249 -5 476 l-2 412 58 0 c59 0
59 0 64 33 3 17 7 48 8 67 l3 35 73 3 c62 2 73 5 68 18 -3 9 -6 25 -6 35 0 18
-6 20 -52 17 -43 -2 -53 -6 -52 -20 3 -32 -15 -19 -22 16 -9 52 -1 57 72 50
49 -5 64 -4 64 6 0 10 15 11 65 6 l64 -6 3 67 3 68 123 3 122 3 0 64 0 65 43
1 c114 1 307 10 345 15 l42 5 0 64 c0 35 5 65 10 67 6 2 130 4 275 6 211 2
265 0 265 -10z m3746 -3 c-15 -11 -17 -21 -11 -52 4 -21 11 -43 16 -49 6 -8 3
-13 -10 -17 -28 -7 -31 -1 -31 70 0 62 0 63 28 63 25 -1 26 -1 8 -15z m682 -7
l102 -12 0 -57 0 -57 123 -7 c67 -3 129 -8 137 -11 11 -3 15 -18 15 -57 l-1
-53 146 -13 c80 -7 173 -15 208 -18 l63 -5 -2 -49 c-2 -27 1 -53 7 -58 7 -7
65 -17 122 -21 2 0 2 -27 0 -60 l-3 -60 58 0 57 0 0 -32 c0 -54 -11 -76 -39
-87 l-26 -9 27 -1 c15 -1 31 -9 36 -18 6 -11 9 -239 8 -540 -1 -404 -4 -525
-14 -535 -16 -16 -232 -24 -232 -8 0 6 -28 10 -70 10 l-70 0 0 54 c0 72 -11
127 -20 101 -6 -16 -15 -18 -66 -16 -32 1 -60 3 -61 4 0 1 -4 54 -8 117 -7
125 -15 158 -15 66 l0 -57 -57 3 -58 3 -5 60 -5 59 -45 3 c-25 1 -55 5 -67 8
-13 3 -23 1 -23 -5 0 -5 -24 -10 -55 -10 l-55 0 0 -50 0 -50 -49 0 c-27 0 -56
-3 -65 -6 -13 -5 -16 2 -16 34 0 23 6 43 13 46 10 5 10 7 0 12 -7 3 -13 12
-13 20 0 10 15 14 59 14 70 0 71 2 66 105 -2 39 -4 91 -4 118 l-1 47 -59 0
-59 0 -6 93 c-4 50 -7 110 -9 132 l-2 40 -66 3 -66 3 -12 107 c-7 59 -15 118
-18 131 -5 20 -7 21 -15 7 -7 -13 -13 -14 -23 -6 -8 6 -26 10 -42 8 l-28 -4
30 -13 c75 -31 87 -71 21 -71 -43 0 -43 0 -51 43 -4 23 -10 78 -14 122 l-6 80
-67 3 -68 3 0 64 0 65 -64 0 -63 0 -6 57 c-7 65 -4 73 26 73 21 0 21 1 -3 13
-22 11 -25 20 -28 79 l-3 66 248 -4 c136 -2 294 -10 351 -16z m-5075 -28 c-4
-20 1 -34 16 -49 12 -12 16 -21 9 -21 -7 0 -23 -3 -35 -6 -22 -6 -23 -4 -23
54 0 55 2 60 20 55 15 -4 18 -11 13 -33z m3107 8 c0 -18 -2 -20 -9 -8 -6 8 -7
18 -5 22 9 14 14 9 14 -14z m660 12 c0 -12 -17 -12 -45 0 -17 7 -15 9 13 9 17
1 32 -3 32 -9z m-4203 -207 c-2 -16 -4 -5 -4 22 0 28 2 40 4 28 2 -13 2 -35 0
-50z m1202 10 c-1 -62 -6 -56 -11 15 -2 23 0 42 4 42 5 0 7 -26 7 -57z m1955
0 c5 -35 3 -43 -9 -43 -11 0 -15 12 -15 52 0 60 14 54 24 -9z m83 35 c-3 -8
-6 -5 -6 6 -1 11 2 17 5 13 3 -3 4 -12 1 -19z m2773 -29 l0 -52 -47 7 c-25 3
-47 7 -48 9 -1 1 -5 21 -9 45 l-6 42 55 0 55 0 0 -51z m-6453 19 c-3 -8 -6 -5
-6 6 -1 11 2 17 5 13 3 -3 4 -12 1 -19z m3683 -38 c0 -16 -4 -30 -8 -30 -5 0
-7 14 -4 30 2 17 6 30 8 30 2 0 4 -13 4 -30z m-3680 -30 c0 -5 -5 -10 -11 -10
-5 0 -7 5 -4 10 3 6 8 10 11 10 2 0 4 -4 4 -10z m268 -87 l-3 -48 -52 -3 -53
-3 0 50 0 51 56 0 55 0 -3 -47z m3270 10 l1 -38 -49 -2 -49 -2 10 27 c7 18 7
28 0 30 -28 9 -6 22 38 22 l49 0 0 -37z m-2038 -53 c0 -5 -7 -10 -15 -10 -8 0
-15 5 -15 10 0 6 7 10 15 10 8 0 15 -4 15 -10z m2227 -62 c-3 -8 -6 -5 -6 6
-1 11 2 17 5 13 3 -3 4 -12 1 -19z m-3802 -116 c-6 -4 -16 -18 -22 -32 -12
-25 -12 -25 -12 8 -1 27 3 32 22 32 12 0 17 -4 12 -8z m1163 -340 l3 -52 -33
7 c-43 8 -43 8 -43 51 0 31 4 38 25 43 40 10 45 5 48 -49z m2592 -262 l0 -65
-40 0 c-34 -1 -40 2 -40 21 0 11 -3 42 -6 68 l-7 47 47 -3 46 -3 0 -65z m2351
35 c13 -9 11 -35 -3 -36 -97 -8 -98 -8 -98 26 l0 32 46 -8 c25 -5 50 -11 55
-14z m-15 -94 c-4 -5 0 -12 6 -14 12 -5 -27 -11 -59 -10 -7 1 -13 -3 -13 -8 0
-5 -4 -9 -10 -9 -5 0 -10 11 -10 25 0 23 4 25 46 25 25 0 43 -4 40 -9z m154
-226 c0 -8 -2 -15 -4 -15 -2 0 -6 7 -10 15 -3 8 -1 15 4 15 6 0 10 -7 10 -15z
m-6234 -205 c10 0 12 -4 7 -12 -4 -7 -8 -33 -8 -58 0 -39 -3 -45 -22 -48 -22
-3 -23 0 -23 63 0 57 2 66 16 61 9 -3 22 -6 30 -6z m6875 -150 c20 0 29 -5 29
-16 0 -13 -7 -15 -35 -11 -34 6 -35 5 -36 -26 l-1 -32 -8 30 c-13 52 -12 68 6
61 9 -3 29 -6 45 -6z m649 -144 c0 -3 -4 -8 -10 -11 -5 -3 -10 -1 -10 4 0 6 5
11 10 11 6 0 10 -2 10 -4z"/>
<path d="M4037 6779 c7 -7 15 -10 18 -7 3 3 -2 9 -12 12 -14 6 -15 5 -6 -5z"/>
<path d="M4091 6701 l-1 -24 -101 6 c-56 3 -97 1 -93 -3 5 -5 25 -10 44 -12
33 -3 35 -5 38 -45 4 -54 22 -56 22 -3 0 40 0 40 38 40 48 0 65 12 59 41 l-4
24 -2 -24z"/>
<path d="M4130 6663 c0 -11 129 -37 138 -28 13 12 -16 24 -75 31 -38 4 -63 3
-63 -3z"/>
<path d="M5973 6543 c9 -2 25 -2 35 0 9 3 1 5 -18 5 -19 0 -27 -2 -17 -5z"/>
<path d="M2720 5631 c0 -5 5 -13 10 -16 6 -3 10 -2 10 4 0 5 -4 13 -10 16 -5
3 -10 2 -10 -4z"/>
<path d="M2500 4963 c0 -19 4 -21 38 -16 47 7 54 13 16 13 -17 0 -35 5 -42 12
-9 9 -12 7 -12 -9z"/>
<path d="M1660 4735 c0 -18 -5 -19 -30 -3 -23 14 -29 10 -32 -23 -2 -18 2 -25
20 -27 12 -2 22 1 22 7 0 21 19 11 23 -11 2 -13 5 -2 6 25 0 26 -1 47 -4 47
-3 0 -5 -7 -5 -15z"/>
<path d="M7593 6185 c0 -33 2 -45 4 -27 2 18 2 45 0 60 -2 15 -4 0 -4 -33z"/>
<path d="M7301 5898 c-1 -16 4 -28 9 -28 12 0 12 8 0 35 -8 18 -9 17 -9 -7z"/>
<path d="M8278 5873 c6 -2 18 -2 25 0 6 3 1 5 -13 5 -14 0 -19 -2 -12 -5z"/>
<path d="M8313 4613 c9 -2 23 -2 30 0 6 3 -1 5 -18 5 -16 0 -22 -2 -12 -5z"/>
<path d="M8328 4553 c-8 -62 9 -61 19 1 3 22 2 36 -5 36 -5 0 -12 -17 -14 -37z"/>
<path d="M5293 5113 c-7 -3 -13 -18 -13 -34 0 -24 4 -29 25 -29 23 0 25 3 19
28 -8 33 -15 41 -31 35z"/>
<path d="M6090 7340 c0 -5 9 -10 20 -10 11 0 20 5 20 10 0 6 -9 10 -20 10 -11
0 -20 -4 -20 -10z"/>
<path d="M4710 7230 c0 -5 23 -10 50 -10 28 0 50 5 50 10 0 6 -22 10 -50 10
-27 0 -50 -4 -50 -10z"/>
<path d="M6444 7219 c-3 -6 -1 -16 5 -22 8 -8 11 -5 11 11 0 24 -5 28 -16 11z"/>
<path d="M8460 7150 c-9 -6 -10 -10 -3 -10 6 0 15 5 18 10 8 12 4 12 -15 0z"/>
<path d="M7891 6934 c0 -11 3 -14 6 -6 3 7 2 16 -1 19 -3 4 -6 -2 -5 -13z"/>
<path d="M7861 6794 c0 -11 3 -14 6 -6 3 7 2 16 -1 19 -3 4 -6 -2 -5 -13z"/>
<path d="M7318 6793 c6 -2 18 -2 25 0 6 3 1 5 -13 5 -14 0 -19 -2 -12 -5z"/>
<path d="M7854 6715 c-10 -8 -14 -15 -8 -15 6 0 17 7 24 15 16 19 9 19 -16 0z"/>
<path d="M1692 6225 c0 -16 2 -22 5 -12 2 9 2 23 0 30 -3 6 -5 -1 -5 -18z"/>
<path d="M3872 6180 c3 -44 4 -45 41 -48 21 -2 37 1 37 7 0 6 -13 11 -30 11
-24 0 -30 4 -30 23 0 12 -5 29 -10 37 -8 11 -10 3 -8 -30z"/>
<path d="M3567 5953 c-4 -3 -7 -20 -7 -36 0 -19 -4 -28 -12 -24 -19 7 -60 -11
-53 -23 3 -5 27 -10 53 -10 l48 0 -4 43 c-4 44 -13 62 -25 50z"/>
<path d="M3125 5391 c-22 -5 -31 -12 -33 -31 -2 -14 -8 -30 -13 -36 -7 -9 3
-13 35 -16 25 -1 49 -2 54 0 9 3 3 81 -7 85 -3 2 -19 1 -36 -2z"/>
<path d="M5288 5313 c6 -2 18 -2 25 0 6 3 1 5 -13 5 -14 0 -19 -2 -12 -5z"/>
<path d="M3011 4934 c0 -11 3 -14 6 -6 3 7 2 16 -1 19 -3 4 -6 -2 -5 -13z"/>
<path d="M3011 4894 c0 -11 3 -14 6 -6 3 7 2 16 -1 19 -3 4 -6 -2 -5 -13z"/>
<path d="M5293 4873 c9 -2 25 -2 35 0 9 3 1 5 -18 5 -19 0 -27 -2 -17 -5z"/>
<path d="M5343 4844 c-3 -8 -1 -20 6 -27 8 -8 11 -4 11 16 0 30 -7 35 -17 11z"/>
<path d="M3000 4770 c0 -5 5 -10 10 -10 6 0 10 5 10 10 0 6 -4 10 -10 10 -5 0
-10 -4 -10 -10z"/>
<path d="M5275 4770 c-4 -6 7 -10 24 -10 17 0 31 5 31 10 0 6 -11 10 -24 10
-14 0 -28 -4 -31 -10z"/>
<path d="M5280 4670 c0 -12 69 -10 76 2 3 4 -13 8 -35 8 -23 0 -41 -5 -41 -10z"/>
<path d="M5280 4608 c0 -5 11 -8 24 -8 13 0 31 -3 40 -6 10 -4 16 -1 16 8 0
10 -12 14 -40 13 -22 0 -40 -3 -40 -7z"/>
<path d="M5293 4443 c9 -2 23 -2 30 0 6 3 -1 5 -18 5 -16 0 -22 -2 -12 -5z"/>
<path d="M5340 4441 c0 -6 5 -13 10 -16 6 -3 10 1 10 9 0 9 -4 16 -10 16 -5 0
-10 -4 -10 -9z"/>
<path d="M7702 4420 c0 -19 2 -27 5 -17 2 9 2 25 0 35 -3 9 -5 1 -5 -18z"/>
<path d="M7590 4370 c0 -5 8 -11 18 -11 89 -7 102 -6 102 4 0 8 -23 13 -60 15
-37 2 -60 -1 -60 -8z"/>
<path d="M2490 4360 c0 -5 7 -10 16 -10 8 0 12 5 9 10 -3 6 -10 10 -16 10 -5
0 -9 -4 -9 -10z"/>
<path d="M7528 4313 c6 -2 18 -2 25 0 6 3 1 5 -13 5 -14 0 -19 -2 -12 -5z"/>
<path d="M7550 4282 c0 -12 -9 -18 -27 -20 -41 -3 -38 -9 7 -17 23 -4 43 -5
45 -3 2 1 1 15 -2 31 -6 30 -23 37 -23 9z"/>
<path d="M5345 4270 c-3 -5 -1 -10 4 -10 6 0 11 5 11 10 0 6 -2 10 -4 10 -3 0
-8 -4 -11 -10z"/>
</g>
</svg>
